<?xml version="1.0" encoding="UTF-8" standalone="no"?>
<svg
   xmlns:dc="http://purl.org/dc/elements/1.1/"
   xmlns:cc="http://creativecommons.org/ns#"
   xmlns:rdf="http://www.w3.org/1999/02/22-rdf-syntax-ns#"
   xmlns:svg="http://www.w3.org/2000/svg"
   xmlns="http://www.w3.org/2000/svg"
   xmlns:sodipodi="http://sodipodi.sourceforge.net/DTD/sodipodi-0.dtd"
   xmlns:inkscape="http://www.inkscape.org/namespaces/inkscape"
   viewBox="0 0 650 650"
   version="1.1"
   id="svg46"
   sodipodi:docname="logo_V6.svg"
   inkscape:version="0.92.4 (5da689c313, 2019-01-14)"
   width="650"
   height="650">
  <metadata
     id="metadata52">
    <rdf:RDF>
      <cc:Work
         rdf:about="">
        <dc:format>image/svg+xml</dc:format>
        <dc:type
           rdf:resource="http://purl.org/dc/dcmitype/StillImage" />
        <dc:title></dc:title>
      </cc:Work>
    </rdf:RDF>
  </metadata>
  <defs
     id="defs50" />
  <sodipodi:namedview
     pagecolor="#ffffff"
     bordercolor="#666666"
     borderopacity="1"
     objecttolerance="10"
     gridtolerance="10"
     guidetolerance="10"
     inkscape:pageopacity="0"
     inkscape:pageshadow="2"
     inkscape:window-width="2400"
     inkscape:window-height="1271"
     id="namedview48"
     showgrid="false"
     inkscape:zoom="0.944"
     inkscape:cx="260.20993"
     inkscape:cy="454.15507"
     inkscape:window-x="2391"
     inkscape:window-y="-9"
     inkscape:window-maximized="1"
     inkscape:current-layer="svg46"
     fit-margin-top="0"
     fit-margin-left="0"
     fit-margin-right="0"
     fit-margin-bottom="0" />
  <circle
     style="opacity:1;fill:#1e2a4d;fill-opacity:1;stroke:none;stroke-width:10.82834721;stroke-miterlimit:4;stroke-dasharray:none;stroke-dashoffset:0;stroke-opacity:1"
     id="path837"
     cx="325"
     cy="325"
     r="325" />
  <g
     id="g873"
     transform="matrix(2.348379,0,0,2.3518756,-700.83091,-283.32563)"
     style="stroke-width:0.42550898">
    <path
       id="path40"
       style="fill:#ffffff;stroke:#ffffff;stroke-width:0.07030912px;stroke-miterlimit:10"
       d="m 298.44955,287.10148 a 49,49 0 0 1 7.37,-3.53001 l 4.78,-2.45 1,-1.35 2.52,-1 5.71,-5.33 1.39,-0.5 1.42,-1.05 h 0.9 l 3.27,-0.72 2,-0.89 1.39,-0.37 3.67,-2.36 1.15,-1.06 0.87,-1.35 2.55,-1.71 1.83,-1 h 0.77 l 0.63,-0.67 h 0.94 l 2.41,-1.15 0.57,-0.54 v -0.48 l 1.14,-1.13 2.11,-1 0.85,-0.66 1.29,-1.19999 2,-1.17 1.4,-0.51 1,-0.38 1,-0.79 1.57,-1.33 0.69,-0.25 1.88,-2.42 h 0.53 l 0.55,0.71 0.7,-0.11 0.58,-0.81 h 1 l 1.39,-1.19 0.3,-0.68 1.13,-0.51 h 0.47 l 0.51,-0.39 1,-0.11 0.43,-0.67 0.72,-0.81 0.84,-0.24 0.67,0.57 0.25,0.7 0.8,0.86 0.26,0.42 0.56,-0.26 0.7,-0.25 1,0.31 h 1 l 0.56,-0.26 0.83,-0.11 0.29,-0.27 1.26,-0.5 0.91,-0.94 0.93,-0.38 h 0.66 l 0.71,0.17 0.71,-0.53 1.55,-0.91 1.25,-0.1 0.94,0.59 1.67,-0.22 h 1 l 0.67,0.58 1.24,0.18 1.39,-0.23 1.39,-0.64 0.85,-0.25 0.94,0.59 0.81,0.72 1,-0.38 1,-0.11 1.35,0.74 1.88,1.45 2,1.72 1.08,0.73 1.24,0.18 0.42,-0.12 0.81,0.44 0.84,-0.38 2.08,-0.21 0.84,-0.38 1.09,0.31 1.06,1.28 0.54,0.57 0.77,1.55 0.11,0.83 0.77,0.73 1.4,0.45 1.08,0.59 0.4,0.57 1.62,0.88 1.24,0.18 2,1 3,1.07 1.08,0.73 1.51,0.33 2,1 0.53,0.7 1.09,0.46 c 0,-0.11 0.56,0.76 1.2,1 0.82,0.3 -1.49,-0.75 -1.49,-0.75 l -1.89,-1 -1.36,-0.74 -1.78,-0.34 -1.77,-0.75 -1.65,-0.33 -1.36,-0.46 -1.37,-0.33001 -1.64,-0.37 -1.65,-0.33 -1.51,-0.15 -1.62,-1.17 -1.8,0.22 -1.52,0.22 -1.54,0.36 -1.21,-0.87 -0.57,0.53 -1.1,-0.16999 -0.66,-0.85 -1.07,-1 -1.1,0.1 -1,0.65999 -1.08,-0.87 -1.27,0.78 -0.59,1.09 -0.46,1.36001 -1,0.24 -0.23,-1.52 -1.65,-0.2 -1.14,1.21 -0.72,0.8 0.79,1 -0.72,0.94 -1.76,-1 h -2.35 l -0.7,0.39 h -1 l -0.43,0.53 -2.18,-0.9 -1.06,-1.14 -1.78,-0.48 -1.93,0.07 -1.06,-1.28 -0.33,1.37 -0.7,0.25 -0.51,-1.12 c 0,0 -1.21,-0.66 -1.21,-0.39 a 6.32,6.32 0 0 1 -0.74,1.36 l -1,0.38 -1.09,-0.32 -0.25,-0.83 -0.51,-1.13 -0.54,-0.43 -1.08,-0.59 -1.26,0.51 -0.73,0.94 -1.12,0.37 h -1 l -1.23,-0.32 -1.95,0.35 -1.37,-0.33 -1.53,0.37 -0.86,0.93 -1,0.52 -1,0.1 -0.16,0.55 -0.85,0.66 -1.25,0.23 -1.52,0.09 -1.5,-0.47 a 4.49,4.49 0 0 1 -0.53,-0.85 c 0,-0.13 -0.7,0.39 -0.7,0.39 l -1,-0.17 -1.7,1.42 -1,0.38 -1.41,1.05 -1,1.07 -1.82,0.9 c 0,0 -1.13,0.65 -1.14,0.79 -0.01,0.14 -0.57,0.67 -0.57,0.67 l -1.12,0.38 -1.83,0.38 -0.71,1.19 -1.52,0.22 -2.12,1.3 -2,1.73 -1.86,1.73 -2.08,0.19999 c 0,0 -1,0.52001 -1.13,0.93001 -0.13,0.40999 -2.81,1.28 -2.81,1.28 l -1.39,0.37 c 0,0 -1.36,-0.60001 -1.37,-0.33001 a 6.32,6.32 0 0 1 -0.74,1.36 l -1.81,0.62 -1.83,0.77001 -1.84,1.32 -1.14,1.06 -1.14,1.06 -1,0.65999 -2.38,0.88 -1.56,1.33001 -2,0.9 -4.34,1.63999 z"
       inkscape:connector-curvature="0" />
    <path
       id="path42"
       style="fill:#ffffff;stroke:#ffffff;stroke-width:0.07030912px;stroke-miterlimit:10"
       d="m 411.59955,278.71148 4.08,-2.34001 3.55,-2.77999 1.68,-0.63 2,-1.45 1.53,-0.22 1.83,-0.90001 2.28,-2.12999 1.56,-1.33001 1.3,-1.61 0.3,-0.68 1.22,0.59 1.25,-0.09 1.15,-1.24 1.56,-1.43 1.55,-0.63 h 1.06 l 2.85,-1.55 1.57,0.05 1.91,-0.76 1.3,-1.75 1.67,-0.35 1.85,-1.46 2,-1.17 2.54,-1.57 4.12,-3.31 1.32,-2.16 4.26,-3.44 h 1.54 l 1.64,-0.35 2,-1.18 1.84,-1.45 2.29,-2.12999 2.69,-2 2,-1.58001 2.68,-1.69999 4.65,-2.88 1.28,-0.92 1.13,-0.65 1.1,-0.1 1.04,0.6 1.09,0.59 0.52,0.71 1.1,0.32 0.54,0.29 0.39,0.57 1,0.31 0.8,0.71 0.53,0.71 0.11,0.83 0.8,0.86 0.66,0.71 v 0.64 l 0.4,0.34 a 1.79,1.79 0 0 0 0.26,0.56 c 0.13,0.15 0.67,0.58 0.67,0.58 l 0.54,0.43 0.39,0.57 0.24,1 0.68,0.3 h 0.69 l 0.67,0.71 0.51,1.12 1.46,1.57 0.24,1.12 0.8,0.71 1.26,-0.5 1,0.17 0.81,0.72 1,0.17 1.24,-0.1 1.26,-0.51 1.38,0.19 1.22,0.6 0.37,1.11 0.53,0.85 1.51,0.19 0.7,-0.39 1.65,0.2 1,0.17 0.94,0.86 0.81,0.44 0.84,-0.25 0.84,-0.38 0.4,0.43 v 0.55 l 0.54,0.43 0.81,0.31 0.66,1 0.67,0.57 1,0.31 0.78,1.27 1.18,1.7 1.21,1 h 1 l 1.2,-0.3 0.76,-0.32 0.79,0.37 0.54,0.92 0.25,1 0.79,0.86 0.25,0.84 v 0.62 c 0,0 -0.4,-0.36 0.67,0.5 1.07,0.86 1.22,0.74 1.22,0.74 l 0.53,0.57 0.52,1 1,0.17 0.95,0.59 0.65,1.12 0.25,0.7 0.8,0.86 1.48,0.88 2.46,0.91 1.77,0.62 1.21,0.87 1.79,0.34 a 12.42,12.42 0 0 0 1.34,1.15 c 0.13,0 0.82,0.16 0.82,0.16 0,0 0.52,0.85 0.93,0.87 a 8.87,8.87 0 0 1 1.64,0.47 l 1.36,0.73 1.24,0.05 1.25,-0.1 0.53,0.44 1.52,-0.09 1,0.31 0.26,0.45 1.52,-0.11 0.52,0.85 0.82,0.3 v 1 l 1.07,1 1.64,0.33 2.18,0.91 1.92,0.34 1.3,0.34 -2.55,-0.25 h -1.24 l -1.08,-0.45 -1.38,-0.19 -2.85,-1.48 -0.24,-0.83 -0.67,-0.58 -1.1,-0.18 -1.09,-0.31 -1,0.1 a 1.79,1.79 0 0 1 -0.69,-0.16 c -0.27,-0.15 -0.95,-0.45 -1.09,-0.31 -0.14,0.14 -1.24,0 -1.24,0 l -1.12,-0.11 -1.91,-0.76 -0.93,-0.51 h -1.24 l -1.61,-0.76 -1.08,-0.59 -1.8,-0.46 -1.64,-0.61 -1.37,-0.19 -1.09,-0.45 a 12.25,12.25 0 0 0 -1.63,-0.61 c 0.13,0.14 -5.39,-3.91 -5.39,-3.91 h -1.1 l -1,0.65 c 0,0 2.15,1.53 1.87,1.86 -0.58,0.67 -0.71,0.39 -0.71,0.39 l -2.17,-0.9 -1.69,0.91 -0.73,-2.79 -1.88,-1.72 a 17.3,17.3 0 0 1 -2.93,0.86 c -0.55,0 -4.65,-1.13 -4.65,-1.13 l -2.92,0.59 -0.38,-1 0.6,-1.22 -4.16,0.54 -1.61,-1.43 c 0,0 -0.88,1.94 -1.18,2 a 29.22,29.22 0 0 1 -3.44,-0.12 l -1.07,-1 -1.27,0.79 0.2,-1.79 -1.87,-1.52 -2.46,-0.92 -2.37,0.75 -1.49,-1.16 c 0,0 0.51,-2.6 -0.6,-2.64 -1.11,-0.04 -2.56,-1.75 -2.56,-1.75 l -1.24,2.14 c 0,0 -0.36,4.16 -1.34,4.54 -0.98,0.38 -1.76,-0.89 -1.76,-0.89 l -0.5,2.46 -2.14,-2 -0.94,-0.87 -1.62,-0.88 -3.09,1.41 -3.05,0.45 -2.91,0.31 -2.6,3.22 0.63,-2.19 -2.07,-0.41 -1.34,-0.67 -1.8,0.21 -1.54,0.5 -2.1,0.76 -1.71,1.45 -1.23,-0.18 -0.66,-1 -1.65,-0.19 -1.73,2.28 -1.27,0.65 -0.92,-1.27 -1.24,-0.19 -0.51,-1 -1.66,-0.06 -2.68,-2.16 -1.69,0.91 -3.48,0.7 -4.19,1.51 -2.65,0.74 a 31.71,31.71 0 0 0 -3.09,1.55 9.64,9.64 0 0 1 -1.41,0.78 l -2.78,0.45 -3.39,2.23 -2.69,2.11 -3.19,0.31 -3.77,1.25 -3,2 z"
       inkscape:connector-curvature="0" />
    <polygon
       transform="translate(-75.230452,92.031478)"
       id="polygon44"
       style="fill:#ffffff;stroke:#ffffff;stroke-width:0.07030912px;stroke-miterlimit:10"
       points="484.01,188.38 485.4,188.15 487.74,188.23 492.94,185.51 494.64,184.19 497.88,182.37 501.81,180.71 494.85,182.26 486.83,186.68 484.75,186.74 483.21,187.38 482.06,188.86 479.42,189.46 474.66,191.09 472.72,191.43 471.04,192.2 469.36,192.69 467.54,193.46 465.3,194.49 463.48,195.11 460.83,195.85 466.68,194.4 468.23,193.62 471.02,192.75 474.08,191.89 476.45,191.42 479.1,190.69 481.32,190.21 482.17,189.94 482.87,189.83 " />
  </g>
</svg>
