<?xml version="1.0" encoding="UTF-8" standalone="no"?>
<svg
   xmlns:dc="http://purl.org/dc/elements/1.1/"
   xmlns:cc="http://creativecommons.org/ns#"
   xmlns:rdf="http://www.w3.org/1999/02/22-rdf-syntax-ns#"
   xmlns:svg="http://www.w3.org/2000/svg"
   xmlns="http://www.w3.org/2000/svg"
   xmlns:sodipodi="http://sodipodi.sourceforge.net/DTD/sodipodi-0.dtd"
   xmlns:inkscape="http://www.inkscape.org/namespaces/inkscape"
   viewBox="0 0 311.33475 92.161018"
   version="1.1"
   id="svg46"
   sodipodi:docname="logo_V4.svg"
   inkscape:version="0.92.4 (5da689c313, 2019-01-14)"
   width="311.33475"
   height="92.161018">
  <metadata
     id="metadata52">
    <rdf:RDF>
      <cc:Work
         rdf:about="">
        <dc:format>image/svg+xml</dc:format>
        <dc:type
           rdf:resource="http://purl.org/dc/dcmitype/StillImage" />
        <dc:title></dc:title>
      </cc:Work>
    </rdf:RDF>
  </metadata>
  <defs
     id="defs50" />
  <sodipodi:namedview
     pagecolor="#ffffff"
     bordercolor="#666666"
     borderopacity="1"
     objecttolerance="10"
     gridtolerance="10"
     guidetolerance="10"
     inkscape:pageopacity="0"
     inkscape:pageshadow="2"
     inkscape:window-width="2400"
     inkscape:window-height="1271"
     id="namedview48"
     showgrid="false"
     inkscape:zoom="1.888"
     inkscape:cx="279.32244"
     inkscape:cy="90.307103"
     inkscape:window-x="2391"
     inkscape:window-y="-9"
     inkscape:window-maximized="1"
     inkscape:current-layer="svg46"
     fit-margin-top="0"
     fit-margin-left="0"
     fit-margin-right="0"
     fit-margin-bottom="0" />
  <rect
     width="311.33475"
     height="92.161018"
     style="fill:#1e2a4d;stroke-width:0.99999994"
     id="rect2"
     x="0"
     y="0" />
  <g
     id="g888"
     transform="translate(-210.81828,-21.122218)">
    <path
       id="path40"
       style="fill:#ffffff;stroke:#ffffff;stroke-width:0.16523534px;stroke-miterlimit:10"
       d="m 228.24354,95.623746 a 48.954871,48.954847 0 0 1 7.36321,-3.526747 l 4.7756,-2.447743 0.99908,-1.348756 2.51768,-0.999078 5.70474,-5.325089 1.38872,-0.499539 1.41869,-1.049032 h 0.89917 l 3.26699,-0.719337 1.99816,-0.88918 1.38872,-0.369659 3.66662,-2.357825 1.14894,-1.059023 0.8692,-1.348756 2.54765,-1.708425 1.82831,-0.999078 h 0.76929 l 0.62942,-0.669383 h 0.93914 l 2.40778,-1.14894 0.56947,-0.539503 v -0.479557 l 1.13895,-1.128959 2.10806,-0.999079 0.84922,-0.659391 1.28881,-1.198895 1.99816,-1.168921 1.39871,-0.50953 0.99908,-0.37965 0.99907,-0.789272 1.56856,-1.328775 0.68936,-0.249769 1.87827,-2.41777 h 0.52951 l 0.5495,0.709345 0.69935,-0.109898 0.57947,-0.809254 h 0.99908 l 1.38872,-1.188903 0.29972,-0.679374 1.12896,-0.50953 h 0.46957 l 0.50953,-0.38964 0.99908,-0.109899 0.4296,-0.669383 0.71934,-0.809253 0.83922,-0.239779 0.66939,0.569475 0.24977,0.699355 0.79926,0.859207 0.25976,0.419613 0.55948,-0.25976 0.69936,-0.24977 0.99908,0.309714 h 0.99908 l 0.55948,-0.25976 0.82924,-0.109899 0.28973,-0.269751 1.25884,-0.499539 0.90916,-0.939134 0.92915,-0.37965 h 0.65939 l 0.70934,0.169844 0.70935,-0.529512 1.54857,-0.909161 1.24885,-0.09991 0.93914,0.589456 1.66846,-0.219797 h 0.99908 l 0.66938,0.579465 1.23886,0.179834 1.38872,-0.229788 1.38872,-0.63941 0.84921,-0.24977 0.93914,0.589457 0.80925,0.719336 0.99908,-0.37965 0.99908,-0.109898 1.34876,0.739318 1.87827,1.448664 1.99815,1.718415 1.07901,0.729327 1.23886,0.179834 0.41961,-0.119889 0.80925,0.439594 0.83923,-0.379649 2.07808,-0.209807 0.83923,-0.37965 1.089,0.309715 1.05902,1.27882 0.5395,0.569475 0.76929,1.548572 0.1099,0.829235 0.76929,0.729327 1.39871,0.449585 1.07901,0.589457 0.39963,0.569474 1.61851,0.87919 1.23886,0.179834 1.99815,0.999078 2.99724,1.069014 1.07901,0.729328 1.50861,0.329695 1.99815,0.999079 0.52952,0.699355 1.08899,0.459576 c 0,-0.109899 0.55949,0.7593 1.1989,0.999079 0.81924,0.299723 -1.48863,-0.749309 -1.48863,-0.749309 l -1.88826,-0.999079 -1.35875,-0.739318 -1.77836,-0.339687 -1.76837,-0.749308 -1.64848,-0.329696 -1.35875,-0.459577 -1.36873,-0.329695 -1.63849,-0.369659 -1.64848,-0.329696 -1.50861,-0.149862 -1.61851,-1.168922 -1.79834,0.219797 -1.5186,0.219798 -1.53858,0.359668 -1.20889,-0.869199 -0.56948,0.529512 -1.09898,-0.169843 -0.65939,-0.849217 -1.06902,-0.999079 -1.09899,0.09991 -0.99907,0.659392 -1.07901,-0.869198 -1.26883,0.779281 -0.58946,1.088996 -0.45957,1.358746 -0.99908,0.239779 -0.22979,-1.518599 -1.64848,-0.199816 -1.13895,1.208885 -0.71934,0.799263 0.78927,0.999079 -0.71933,0.939133 -1.75838,-0.999078 h -2.34784 l -0.69935,0.38964 h -0.99908 l -0.42961,0.529512 -2.17799,-0.899171 -1.05902,-1.138949 -1.77836,-0.479558 -1.92822,0.06994 -1.05903,-1.278821 -0.32969,1.368738 -0.69936,0.249769 -0.50953,-1.118968 c 0,0 -1.20889,-0.659391 -1.20889,-0.38964 a 6.3141793,6.3141762 0 0 1 -0.73931,1.358747 l -0.99908,0.379649 -1.089,-0.319705 -0.24977,-0.829235 -0.50953,-1.128959 -0.5395,-0.429603 -1.07901,-0.589457 -1.25884,0.50953 -0.72932,0.939134 -1.11897,0.369659 h -0.99908 l -1.22887,-0.319705 -1.9482,0.349678 -1.36874,-0.329696 -1.52859,0.369659 -0.85921,0.929143 -0.99908,0.519521 -0.99908,0.09991 -0.15985,0.549494 -0.84922,0.659391 -1.24885,0.229789 -1.5186,0.08992 -1.49861,-0.469567 a 4.4858647,4.4858626 0 0 1 -0.52952,-0.849217 c 0,-0.12988 -0.69935,0.389641 -0.69935,0.389641 l -0.99908,-0.169844 -1.69844,1.418692 -0.99907,0.37965 -1.40871,1.049032 -0.99907,1.069014 -1.81833,0.899171 c 0,0 -1.12896,0.649401 -1.13895,0.789272 -0.01,0.139871 -0.56947,0.669382 -0.56947,0.669382 l -1.11897,0.37965 -1.82832,0.37965 -0.70934,1.188903 -1.5186,0.219798 -2.11805,1.298802 -1.99816,1.728406 -1.85829,1.728405 -2.07808,0.199816 c 0,0 -0.99908,0.519521 -1.12896,0.929143 -0.12988,0.409622 -2.80741,1.278821 -2.80741,1.278821 l -1.38872,0.369659 c 0,0 -1.35875,-0.599447 -1.36874,-0.329696 a 6.3141793,6.3141762 0 0 1 -0.73932,1.358747 l -1.80833,0.619428 -1.82831,0.769291 -1.83831,1.318783 -1.13895,1.059024 -1.13895,1.059023 -0.99908,0.659392 -2.37781,0.879189 -1.55856,1.328774 -1.99816,0.899171 -4.336,1.638489 z"
       inkscape:connector-curvature="0" />
    <g
       id="g882">
      <path
         inkscape:connector-curvature="0"
         d="m 341.28933,87.241477 4.07624,-2.337844 3.54673,-2.777438 1.67845,-0.629419 1.99816,-1.448664 1.52859,-0.219798 1.82832,-0.89917 2.2779,-2.128038 1.55856,-1.328774 1.2988,-1.608516 0.29973,-0.679374 1.21887,0.589457 1.24885,-0.08992 1.14894,-1.238858 1.55857,-1.428682 1.54857,-0.62942 h 1.05902 l 2.84738,-1.548571 1.56855,0.04995 1.90824,-0.7593 1.2988,-1.748387 1.66847,-0.349678 1.84829,-1.458655 1.99816,-1.168921 2.53766,-1.568554 4.11621,-3.30695 1.31878,-2.158009 4.25608,-3.43683 h 1.53858 l 1.63849,-0.349678 1.99816,-1.178912 1.8383,-1.448664 2.28789,-2.128038 2.68753,-1.998157 1.99815,-1.578544 2.67753,-1.698433 4.64572,-2.877346 1.27882,-0.919153 1.12896,-0.649401 1.09899,-0.09991 1.03904,0.599447 1.089,0.589456 0.51952,0.709346 1.09899,0.319705 0.5395,0.289733 0.38964,0.569474 0.99908,0.309715 0.79926,0.709345 0.52951,0.709346 0.1099,0.829235 0.79927,0.859208 0.65939,0.709346 v 0.63941 l 0.39963,0.339687 a 1.7883514,1.7883506 0 0 0 0.25976,0.559484 c 0.12988,0.149861 0.66938,0.579465 0.66938,0.579465 l 0.53951,0.429604 0.38964,0.569475 0.23977,0.999078 0.67938,0.299724 h 0.68936 l 0.66939,0.709345 0.50953,1.118968 1.45865,1.568554 0.23978,1.118968 0.79926,0.709345 1.25884,-0.499539 0.99908,0.169843 0.80926,0.719337 0.99908,0.169843 1.23885,-0.09991 1.25884,-0.509531 1.37873,0.189825 1.21888,0.599448 0.36966,1.108977 0.52951,0.849216 1.50861,0.189825 0.69935,-0.38964 1.64848,0.199815 0.99908,0.169844 0.93914,0.859207 0.80925,0.439595 0.83923,-0.24977 0.83922,-0.37965 0.39964,0.429604 v 0.549493 l 0.5395,0.429604 0.80925,0.309714 0.65939,0.999079 0.66939,0.569475 0.99908,0.309714 0.77928,1.26883 1.17891,1.698433 1.20889,0.999079 h 0.99908 l 1.19889,-0.299724 0.7593,-0.319705 0.78927,0.369659 0.53951,0.919152 0.24977,0.999079 0.78927,0.859207 0.24977,0.839226 v 0.619429 c 0,0 -0.39963,-0.359668 0.66938,0.499539 1.06902,0.859208 1.21888,0.739318 1.21888,0.739318 l 0.52951,0.569475 0.51952,0.999079 0.99908,0.169843 0.94912,0.589456 0.64941,1.118968 0.24977,0.699355 0.79926,0.859208 1.47864,0.879189 2.45773,0.909161 1.76837,0.619429 1.20889,0.869198 1.78835,0.339687 a 12.408561,12.408555 0 0 0 1.33876,1.14894 c 0.12988,0 0.81925,0.159853 0.81925,0.159853 0,0 0.51952,0.849217 0.92914,0.869198 a 8.8618307,8.8618265 0 0 1 1.63849,0.469567 l 1.35875,0.729327 1.23886,0.04995 1.24884,-0.09991 0.52952,0.439594 1.5186,-0.08992 0.99908,0.309714 0.25976,0.449586 1.5186,-0.109899 0.51952,0.849217 0.81924,0.299723 v 0.999079 l 1.06902,0.999078 1.63849,0.329696 2.17799,0.909162 1.91823,0.339686 1.2988,0.339687 -2.54765,-0.249769 h -1.23886 l -1.079,-0.449586 -1.37873,-0.189825 -2.84738,-1.478636 -0.23978,-0.829235 -0.66938,-0.579466 -1.09899,-0.179834 -1.08899,-0.309714 -0.99908,0.09991 a 1.7883514,1.7883506 0 0 1 -0.68936,-0.159853 c -0.26976,-0.149862 -0.94913,-0.449585 -1.089,-0.309714 -0.13987,0.139871 -1.23886,0 -1.23886,0 l -1.11897,-0.109899 -1.90824,-0.7593 -0.92914,-0.50953 h -1.23886 l -1.60852,-0.759299 -1.079,-0.589457 -1.79834,-0.459576 -1.63849,-0.609438 -1.36874,-0.189824 -1.089,-0.449586 a 12.238718,12.238712 0 0 0 -1.6285,-0.609438 c 0.12988,0.139871 -5.38503,-3.906397 -5.38503,-3.906397 h -1.09899 l -0.99908,0.649401 c 0,0 2.14802,1.52859 1.86828,1.858286 -0.57947,0.669383 -0.70935,0.389641 -0.70935,0.389641 l -2.168,-0.899171 -1.68844,0.909162 -0.72933,-2.787429 -1.87827,-1.718415 a 17.284067,17.284058 0 0 1 -2.9273,0.859207 c -0.54949,0 -4.64572,-1.128959 -4.64572,-1.128959 l -2.91731,0.589457 -0.37965,-0.999079 0.59945,-1.218876 -4.15617,0.539503 -1.60852,-1.428682 c 0,0 -0.87919,1.938212 -1.17891,1.998157 a 29.193088,29.193074 0 0 1 -3.43683,-0.11989 l -1.06902,-0.999078 -1.26883,0.789272 0.19982,-1.788351 -1.86828,-1.518599 -2.45773,-0.919152 -2.36782,0.749308 -1.48863,-1.158931 c 0,0 0.50953,-2.597604 -0.59944,-2.637567 -1.10898,-0.03996 -2.55765,-1.748387 -2.55765,-1.748387 l -1.23885,2.138028 c 0,0 -0.35967,4.156166 -1.33877,4.535816 -0.9791,0.37965 -1.75838,-0.88918 -1.75838,-0.88918 l -0.49954,2.457733 -2.13803,-1.998157 -0.93913,-0.869198 -1.61851,-0.879189 -3.08715,1.408701 -3.0472,0.449585 -2.90732,0.309714 -2.5976,3.217033 0.62942,-2.187982 -2.06809,-0.409622 -1.33877,-0.669383 -1.79834,0.209807 -1.53858,0.499539 -2.09807,0.7593 -1.70843,1.448664 -1.22886,-0.179834 -0.65939,-0.999079 -1.64849,-0.189825 -1.7284,2.277899 -1.26883,0.649401 -0.91915,-1.268829 -1.23886,-0.189825 -0.50953,-0.999079 -1.65847,-0.05995 -2.67754,-2.158009 -1.68844,0.909161 -3.47679,0.699355 -4.18615,1.508609 -2.64755,0.739318 a 31.680795,31.68078 0 0 0 -3.08716,1.548572 9.6311216,9.6311169 0 0 1 -1.4087,0.779281 l -2.77744,0.449585 -3.38688,2.227945 -2.68752,2.108056 -3.18706,0.309714 -3.76653,1.248848 -2.99724,1.998157 z"
         style="fill:#ffffff;stroke:#ffffff;stroke-width:0.16523534px;stroke-miterlimit:10"
         id="path42" />
      <polygon
         points="476.45,191.42 479.1,190.69 481.32,190.21 482.17,189.94 482.87,189.83 484.01,188.38 485.4,188.15 487.74,188.23 492.94,185.51 494.64,184.19 497.88,182.37 501.81,180.71 494.85,182.26 486.83,186.68 484.75,186.74 483.21,187.38 482.06,188.86 479.42,189.46 474.66,191.09 472.72,191.43 471.04,192.2 469.36,192.69 467.54,193.46 465.3,194.49 463.48,195.11 460.83,195.85 466.68,194.4 468.23,193.62 471.02,192.75 474.08,191.89 "
         style="fill:#ffffff;stroke:#ffffff;stroke-width:0.1653877px;stroke-miterlimit:10"
         id="polygon44"
         transform="matrix(0.999079,0,0,0.99907852,-145.0923,-99.266501)" />
    </g>
  </g>
</svg>
