<?xml version="1.0" encoding="UTF-8" standalone="no"?>
<svg
   xmlns:shaper="http://www.shapertools.com/namespaces/shaper"
   xmlns:dc="http://purl.org/dc/elements/1.1/"
   xmlns:cc="http://creativecommons.org/ns#"
   xmlns:rdf="http://www.w3.org/1999/02/22-rdf-syntax-ns#"
   xmlns:svg="http://www.w3.org/2000/svg"
   xmlns="http://www.w3.org/2000/svg"
   xmlns:sodipodi="http://sodipodi.sourceforge.net/DTD/sodipodi-0.dtd"
   xmlns:inkscape="http://www.inkscape.org/namespaces/inkscape"
   id="svg150"
   y="0cm"
   xml:space="preserve"
   x="0cm"
   width="7.4083333cm"
   viewBox="0 0 7.408333 7.4083328"
   version="1.1"
   shaper:fusionaddin="version:1.5.0"
   height="7.4083333cm"
   enable-background="new 0 0 11.7529352 4.1226647"
   sodipodi:docname="LogoRSA.svg"
   inkscape:version="0.92.4 (5da689c313, 2019-01-14)"
   inkscape:export-filename="C:\Users\milto\Desktop\Logo eagle\LogoRSA.png"
   inkscape:export-xdpi="300"
   inkscape:export-ydpi="300"><sodipodi:namedview
     pagecolor="#ffffff"
     bordercolor="#666666"
     borderopacity="1"
     objecttolerance="10"
     gridtolerance="10"
     guidetolerance="10"
     inkscape:pageopacity="0"
     inkscape:pageshadow="2"
     inkscape:window-width="2400"
     inkscape:window-height="1271"
     id="namedview72"
     showgrid="false"
     fit-margin-top="0"
     fit-margin-left="0"
     fit-margin-right="0"
     fit-margin-bottom="0"
     inkscape:zoom="1.1996663"
     inkscape:cx="15.26037"
     inkscape:cy="77.46889"
     inkscape:window-x="-9"
     inkscape:window-y="-9"
     inkscape:window-maximized="1"
     inkscape:current-layer="svg150" /><metadata
     id="metadata156"><rdf:RDF><cc:Work
         rdf:about=""><dc:format>image/svg+xml</dc:format><dc:type
           rdf:resource="http://purl.org/dc/dcmitype/StillImage" /><dc:title></dc:title></cc:Work></rdf:RDF></metadata><defs
     id="defs154" /><circle
     style="opacity:1;fill:#1c2e51;fill-opacity:1;stroke:#1c2e51;stroke-width:0.02874876;stroke-miterlimit:4;stroke-dasharray:none;stroke-dashoffset:0;stroke-opacity:1"
     id="path879"
     cx="3.7041667"
     cy="3.7041667"
     r="3.6897922" /><g
     id="g1026"
     transform="translate(2.2787451,3.204164)"><path
       inkscape:connector-curvature="0"
       style="vector-effect:non-scaling-stroke;fill:#ffffff;fill-opacity:1;stroke-width:0.54029047"
       id="path2"
       shaper:pathType="exterior"
       shaper:cutDepth="0"
       d="m -0.59168652,0.26024758 0.003992,-0.052464 0.0133734,0.006161 0.002573,0.0377323 -0.008856,0.004159 -3.0961e-4,1.3511e-4 -0.0107673,0.00427" /><path
       inkscape:connector-curvature="0"
       style="vector-effect:non-scaling-stroke;fill:#ffffff;fill-opacity:1;stroke-width:0.54029047"
       id="path4"
       shaper:pathType="exterior"
       shaper:cutDepth="0"
       d="m -0.58769326,0.20778453 -0.003992,0.052464 0.0107584,-0.00427 3.0966e-4,-1.3475e-4 0.008856,-0.004159 -0.002573,-0.0377368 -0.0133645,-0.006161" /><path
       inkscape:connector-curvature="0"
       style="vector-effect:non-scaling-stroke;fill:#ffffff;fill-opacity:1;stroke-width:0.54029047"
       id="path6"
       shaper:pathType="exterior"
       shaper:cutDepth="0"
       d="m -0.67456189,0.27953962 0.0111593,-0.002212 0.002635,-5.4572e-4 -0.007154,-0.0334869 -0.006642,0.0362355" /><path
       inkscape:connector-curvature="0"
       style="vector-effect:non-scaling-stroke;fill:#ffffff;fill-opacity:1;stroke-width:0.54029047"
       id="path8"
       shaper:pathType="exterior"
       shaper:cutDepth="0"
       d="m -0.66340154,0.27732735 -0.0111593,0.002212 0.006633,-0.0362355 0.007154,0.0334869 -0.002631,5.4607e-4" /><path
       inkscape:connector-curvature="0"
       style="vector-effect:non-scaling-stroke;fill:#ffffff;fill-opacity:1;stroke-width:0.54029047"
       id="path10"
       shaper:pathType="exterior"
       shaper:cutDepth="0"
       d="m -0.63353825,0.34986615 -0.00764,0.0185232 -0.0195879,-0.0916192 0.0477606,-0.0102817 0.008264,-0.002107 4.2989e-4,-1.1992e-4 0.012625,-0.004047 -0.0112885,0.14830456 -0.030569,-0.0586749" /><path
       inkscape:connector-curvature="0"
       style="vector-effect:non-scaling-stroke;fill:#ffffff;fill-opacity:1;stroke-width:0.54029047"
       id="path12"
       shaper:pathType="exterior"
       shaper:cutDepth="0"
       d="m -0.64117905,0.36839866 0.00764,-0.0185231 0.0305645,0.058686 0.0112885,-0.14830457 -0.012625,0.004047 -4.2989e-4,1.1992e-4 -0.008264,0.002105 -0.0477606,0.0102817 0.0195923,0.0916192" /><path
       inkscape:connector-curvature="0"
       style="vector-effect:non-scaling-stroke;fill:#ffffff;fill-opacity:1;stroke-width:0.54029047"
       id="path14"
       shaper:pathType="exterior"
       shaper:cutDepth="0"
       d="m -0.699006,0.28438063 -0.0147365,0.002709 -2.272e-4,4.01e-5 0.005934,-0.0731647 0.00764,0.0561134 0.00139,0.0142911" /><path
       inkscape:connector-curvature="0"
       style="vector-effect:non-scaling-stroke;fill:#ffffff;fill-opacity:1;stroke-width:0.54029047"
       id="path16"
       shaper:pathType="exterior"
       shaper:cutDepth="0"
       d="m -0.71374079,0.28708627 0.0147365,-0.002709 -0.001388,-0.0142911 -0.00764,-0.0561098 -0.005934,0.0731646 2.2475e-4,-3.71e-5" /><path
       inkscape:connector-curvature="0"
       style="vector-effect:non-scaling-stroke;fill:#ffffff;fill-opacity:1;stroke-width:0.54029047"
       id="path18"
       shaper:pathType="exterior"
       shaper:cutDepth="0"
       d="m -0.69084467,0.36839866 0.0162824,-0.0888608 -0.0244436,0.004825 0.008161,0.0840237" /><path
       inkscape:connector-curvature="0"
       style="vector-effect:non-scaling-stroke;fill:#ffffff;fill-opacity:1;stroke-width:0.54029047"
       id="path20"
       shaper:pathType="exterior"
       shaper:cutDepth="0"
       d="m -0.67456189,0.27953962 -0.0162824,0.0888608 -0.008161,-0.0840197 0.0244436,-0.004825" /><path
       inkscape:connector-curvature="0"
       style="vector-effect:non-scaling-stroke;fill:#ffffff;fill-opacity:1;stroke-width:0.54029047"
       id="path22"
       shaper:pathType="exterior"
       shaper:cutDepth="0"
       d="m -0.83602075,0.25360081 0.0362934,-0.0921462 0.01238,0.13547425 -0.002766,1.3587e-4 -1.6929e-4,7.44e-6 -0.007453,1.6742e-4 h -0.05094 l 0.006923,-0.0601116 0.005729,0.0164828" /><path
       inkscape:connector-curvature="0"
       style="vector-effect:non-scaling-stroke;fill:#ffffff;fill-opacity:1;stroke-width:0.54029047"
       id="path24"
       shaper:pathType="exterior"
       shaper:cutDepth="0"
       d="m -0.7997267,0.1614533 -0.0362934,0.0921462 -0.005733,-0.0164829 -0.006923,0.0601116 h 0.0509382 l 0.007453,-1.6741e-4 1.6924e-4,-7.04e-6 0.002766,-1.3587e-4 -0.01238,-0.13547425" /><path
       inkscape:connector-curvature="0"
       style="vector-effect:non-scaling-stroke;fill:#ffffff;fill-opacity:1;stroke-width:0.54029047"
       id="path26"
       shaper:pathType="exterior"
       shaper:cutDepth="0"
       d="m -1.0037323,0.29723979 0.0110747,-0.19189946 0.005956,0.19189946 h -0.0170308" /><path
       inkscape:connector-curvature="0"
       style="vector-effect:non-scaling-stroke;fill:#ffffff;fill-opacity:1;stroke-width:0.54029047"
       id="path28"
       shaper:pathType="exterior"
       shaper:cutDepth="0"
       d="m -0.99265803,0.10534131 -0.0110747,0.19189946 h 0.0170308 l -0.005956,-0.19189946" /><path
       inkscape:connector-curvature="0"
       style="vector-effect:non-scaling-stroke;fill:#ffffff;fill-opacity:1;stroke-width:0.54029047"
       id="path30"
       shaper:pathType="exterior"
       shaper:cutDepth="0"
       d="m -0.56367894,-0.10468799 -0.0445482,-0.0172268 -0.047136,-0.0105045 -0.0455933,-0.005756 -0.0459408,-0.002827 -0.0389441,-6.6827e-4 H -1.0818388 v 0.4388623 h 0.078106 l -0.00803,0.1391125 -0.028653,-0.0180064 -0.019102,-0.11943287 -0.011462,0.0427262 -0.022925,-0.091118 -0.017191,0.0406681 -0.01528,0.0514804 -0.013373,-0.024203 -0.01528,-0.0293261 -0.011462,0.10862238 -0.024831,-0.0628032 -0.021013,-0.002065 -0.00955,0.058686 -0.00764,0.028845 -0.00955,-0.0514804 -0.01528,-0.0705252 -0.017191,0.13281605 -0.036293,-0.1106787 -0.01528,-0.29651962 -0.0191,0.42212777 -0.00382,-0.2362891 -0.021013,-0.0535372 -0.013371,0.20334123 -0.00955,-0.0545689 -0.022922,-0.10656156 -0.013371,0.10553339 -0.00573,-0.0720697 -0.011462,0.16833657 -0.015282,-0.1878977 -0.017191,0.0355272 -0.00764,-0.0509645 -0.017191,0.18326423 -0.01146,0.0720697 -0.011462,-0.010803 -0.00764,-0.14053804 -0.00764,-0.0684684 -0.011461,-0.0406681 -0.017192,0.0504482 -0.00573,0.12046105 -0.017192,0.0113242 -0.017192,0.18017571 -0.00148,-0.003898 -4.323e-4,3.4079e-4 -0.00355,-0.0622539 -0.00191,0.0180064 -0.00382,-0.0102817 -0.00115,0.0472073 -0.012219,0.0119924 -0.00764,-0.0839124 -0.00382,0.0576579 -0.012828,0.0142554 -5.431e-4,-0.016817 -0.013372,0.005159 -0.00573,-0.0648635 -0.00955,0.0756745 -0.00955,-0.0669239 -0.00382,0.0545689 -0.00584,0.0153335 -0.00181,-0.0627194 -0.00519,-0.00953 -0.012328,0.0743073 -0.011133,-0.0853682 -0.00478,0.0844253 -0.00934,0.001162 v -1.12159186 h 1.11272641 l 0.0474621,3.2298e-4 0.045682,9.6674e-4 0.0439023,0.001608 0.0421204,0.002254 0.0481945,0.003557 0.0456312,0.00449 0.0430648,0.005422 0.0470042,0.007497 0.0435147,0.008763 0.0454579,0.0115469 0.0461943,0.015182 0.04336325,0.0185989 0.04085964,0.0221628 0.03835158,0.0257266 0.0358435,0.0292905 0.0333399,0.0328543 0.03083183,0.0364182 0.02712096,0.0382402 0.0237041,0.0407037 0.0200467,0.0429757 0.0156186,0.0428109 -0.0609228,0.27952445 -0.0878705,-0.22753892 -0.08487819,0.26315612 -0.03928709,-0.4165588 -0.0164027,0.11829293 -0.0265196,0.27684757 -0.0265196,0.21422615 -0.0719231,-0.72519455 -0.01528,0.43396779 -0.0420268,-0.28570909 -0.0248312,-0.0622909 -0.0137387,-0.0557499 -0.0187325,0.71313763 -0.0305645,-0.58171251 -0.0166165,-0.14295884 -0.0244525,0.0103931 -0.0257845,0.61028347 -0.0477553,0.0102817 -0.0248312,0.0689807 -0.01528,0.0622873 -0.0210134,-0.0267646 -0.006985,-0.1028048 0.0399063,-0.0277313 0.0306937,-0.0360484 0.0216727,-0.0425213 0.0107183,-0.04669858 4.5217e-4,-0.04611232 -0.00784,-0.04660591 -0.0188261,-0.04516166 -0.0294152,-0.03746061 -0.0392826,-0.02806539" /><path
       inkscape:connector-curvature="0"
       style="vector-effect:non-scaling-stroke;fill:#ffffff;fill-opacity:1;stroke-width:0.54029047"
       id="path34"
       shaper:pathType="exterior"
       shaper:cutDepth="0"
       d="m -0.86467386,0.43171798 0.005733,-0.0453029 0.0102684,-0.0891766 h -0.13803136 l 0.003597,0.11594697 0.0191023,-0.0813357 0.00764,-0.0200823 0.0171912,0.0355272 0.005733,0.0380932 0.0171912,0.00568 0.009551,-0.0319277 0.0171912,0.0190444 0.0248312,0.0535407" /><path
       inkscape:connector-curvature="0"
       style="vector-effect:non-scaling-stroke;fill:#ffffff;fill-opacity:1;stroke-width:0.54029047"
       id="path36"
       shaper:pathType="exterior"
       shaper:cutDepth="0"
       d="m -0.85894326,0.3864166 -0.005729,0.0453029 -0.0248312,-0.0535371 -0.0171912,-0.0190444 -0.009551,0.0319277 -0.0171912,-0.00568 -0.005733,-0.0380932 -0.0171912,-0.0355272 -0.00764,0.0200823 -0.0191023,0.0813357 -0.003597,-0.11594698 h 0.13803181 l -0.0102684,0.0891766" /><path
       inkscape:connector-curvature="0"
       style="vector-effect:non-scaling-stroke;fill:#ffffff;fill-opacity:1;stroke-width:0.54029047"
       id="path38"
       shaper:pathType="exterior"
       shaper:cutDepth="0"
       d="m -0.75639408,0.29383956 0.004426,-0.0139971 0.002388,0.0130304 -0.002593,3.653e-4 -1.0696e-4,1.483e-5 -0.004114,5.5761e-4" /><path
       inkscape:connector-curvature="0"
       style="vector-effect:non-scaling-stroke;fill:#ffffff;fill-opacity:1;stroke-width:0.54029047"
       id="path40"
       shaper:pathType="exterior"
       shaper:cutDepth="0"
       d="m -0.75197142,0.2798548 -0.004426,0.0139971 0.004114,-5.5685e-4 1.0697e-4,-1.488e-5 0.002593,-3.6529e-4 -0.002388,-0.0130304" /><path
       inkscape:connector-curvature="0"
       style="vector-effect:non-scaling-stroke;fill:#ffffff;fill-opacity:1;stroke-width:0.54029047"
       id="path42"
       shaper:pathType="exterior"
       shaper:cutDepth="0"
       d="m -0.75916195,0.29420004 0.002766,-3.6084e-4 -0.0242298,0.0766171 -0.006718,-0.0735286 0.0276333,-0.002657 5.4803e-4,-7.204e-5" /><path
       inkscape:connector-curvature="0"
       style="vector-effect:non-scaling-stroke;fill:#ffffff;fill-opacity:1;stroke-width:0.54029047"
       id="path44"
       shaper:pathType="exterior"
       shaper:cutDepth="0"
       d="m -0.75639408,0.29383956 -0.002766,3.6084e-4 -5.4572e-4,6.981e-5 -0.0276333,0.002656 0.006718,0.0735286 0.0242253,-0.0766171" /><path
       inkscape:connector-curvature="0"
       style="vector-effect:non-scaling-stroke;fill:#ffffff;fill-opacity:1;stroke-width:0.54029047"
       id="path46"
       shaper:pathType="exterior"
       shaper:cutDepth="0"
       d="m -0.71396714,0.28712672 -0.0112618,0.13892673 -0.024359,-0.13315373 0.0356163,-0.005791" /><path
       inkscape:connector-curvature="0"
       style="vector-effect:non-scaling-stroke;fill:#ffffff;fill-opacity:1;stroke-width:0.54029047"
       id="path48"
       shaper:pathType="exterior"
       shaper:cutDepth="0"
       d="m -0.72522845,0.42605541 0.0112618,-0.13892673 -0.0356163,0.005791 0.024359,0.13315016" /><path
       inkscape:connector-curvature="0"
       style="vector-effect:non-scaling-stroke;fill:#ffffff;fill-opacity:1;stroke-width:0.54029047"
       id="path50"
       shaper:pathType="exterior"
       shaper:cutDepth="0"
       d="m 1.7427649,0.43377727 0.019111,-0.0324445 0.019267,-0.14293605 -0.0063,-0.002243 -0.045965,-0.0157033 0.013899,0.19332144" /><path
       inkscape:connector-curvature="0"
       style="vector-effect:non-scaling-stroke;fill:#ffffff;fill-opacity:1;stroke-width:0.54029047"
       id="path52"
       shaper:pathType="exterior"
       shaper:cutDepth="0"
       d="M 1.761867,0.4013454 1.742756,0.4337943 1.728857,0.2404693 1.774822,0.2561725 1.781122,0.2584155 1.761855,0.40135156" /><path
       inkscape:connector-curvature="0"
       style="vector-effect:non-scaling-stroke;fill:#ffffff;fill-opacity:1;stroke-width:0.54029047"
       id="path54"
       shaper:pathType="exterior"
       shaper:cutDepth="0"
       d="m -0.96399499,0.70836954 -0.0194319,-0.003101 0.00605,-0.0619719 0.0114623,-0.008763 0.00192,0.0738258" /><path
       inkscape:connector-curvature="0"
       style="vector-effect:non-scaling-stroke;fill:#ffffff;fill-opacity:1;stroke-width:0.54029047"
       id="path56"
       shaper:pathType="exterior"
       shaper:cutDepth="0"
       d="m -0.98342773,0.70526707 0.0194319,0.003101 -0.001918,-0.0738258 -0.0114623,0.008763 -0.006054,0.0619719" /><path
       inkscape:connector-curvature="0"
       style="vector-effect:non-scaling-stroke;fill:#ffffff;fill-opacity:1;stroke-width:0.54029047"
       id="path58"
       shaper:pathType="exterior"
       shaper:cutDepth="0"
       d="m -1.0397954,0.70287813 0.027192,1.3288e-4 0.010081,7.7742e-4 -0.0016,-0.0234235 -0.011462,-0.0113242 -0.00764,0.0123621 -0.00573,-0.0144024 -0.010843,0.0359014" /><path
       inkscape:connector-curvature="0"
       style="vector-effect:non-scaling-stroke;fill:#ffffff;fill-opacity:1;stroke-width:0.54029047"
       id="path60"
       shaper:pathType="exterior"
       shaper:cutDepth="0"
       d="m -1.0126027,0.70301101 -0.027192,-1.3288e-4 0.010843,-0.0359014 0.00573,0.0144024 0.00764,-0.0123621 0.011462,0.0113242 0.0016,0.0234235 -0.010081,-7.8071e-4" /><path
       inkscape:connector-curvature="0"
       style="vector-effect:non-scaling-stroke;fill:#ffffff;fill-opacity:1;stroke-width:0.54029047"
       id="path62"
       shaper:pathType="exterior"
       shaper:cutDepth="0"
       d="m -1.0397954,0.70287813 -0.00253,0.008353 -0.00253,-0.008388 0.00505,2.116e-5" /><path
       inkscape:connector-curvature="0"
       style="vector-effect:non-scaling-stroke;fill:#ffffff;fill-opacity:1;stroke-width:0.54029047"
       id="path64"
       shaper:pathType="exterior"
       shaper:cutDepth="0"
       d="m -1.0423236,0.71124892 0.00253,-0.008353 -0.00505,-2.303e-5 0.00252,0.008388" /><path
       inkscape:connector-curvature="0"
       style="vector-effect:non-scaling-stroke;fill:#ffffff;fill-opacity:1;stroke-width:0.54029047"
       id="path66"
       shaper:pathType="exterior"
       shaper:cutDepth="0"
       d="m -1.044849,0.7028551 -0.0032,-0.0106559 -0.00182,0.0106559 h 0.00503" /><path
       inkscape:connector-curvature="0"
       style="vector-effect:non-scaling-stroke;fill:#ffffff;fill-opacity:1;stroke-width:0.54029047"
       id="path68"
       shaper:pathType="exterior"
       shaper:cutDepth="0"
       d="m -1.0480542,0.69220152 0.0032,0.0106559 h -0.00502 l 0.00182,-0.0106559" /><path
       inkscape:connector-curvature="0"
       style="vector-effect:non-scaling-stroke;fill:#ffffff;fill-opacity:1;stroke-width:0.54029047"
       id="path70"
       shaper:pathType="exterior"
       shaper:cutDepth="0"
       d="m -1.0498747,0.7028551 -0.011551,0.0675961 -0.017191,0.10913471 -0.00322,-0.0156275 v -0.1611051 h 0.031963" /><path
       inkscape:connector-curvature="0"
       style="vector-effect:non-scaling-stroke;fill:#ffffff;fill-opacity:1;stroke-width:0.54029047"
       id="path72"
       shaper:pathType="exterior"
       shaper:cutDepth="0"
       d="m -1.0614257,0.77044967 0.011551,-0.0675961 h -0.031963 v 0.16110505 l 0.00322,0.0156275 0.017191,-0.10913471" /><path
       inkscape:connector-curvature="0"
       style="vector-effect:non-scaling-stroke;fill:#ffffff;fill-opacity:1;stroke-width:0.54029047"
       id="path74"
       shaper:pathType="exterior"
       shaper:cutDepth="0"
       d="m -1.4530191,0.77611264 0.015282,-0.0236863 0.017191,0.1328161 0.00573,0.0190444 0.017191,-0.0185232 0.022922,-0.008763 0.021013,0.0705252 0.017191,-0.054053 0.00573,-0.002573 0.017193,-0.14826008 0.00955,0.0767027 0.00764,-0.14156622 0.00764,0.106562 0.00955,-0.11788838 0.00955,0.0102817 0.00955,0.044272 0.00382,-0.003609 0.00955,0.0334513 0.011462,0.0216059 0.00955,0.11016644 0.011462,-0.19047036 0.01528,0.18069157 0.019102,-0.17142553 0.00573,0.0689807 0.017191,-0.0983237 0.00764,0.20849056 0.011462,-0.13436059 0.013373,0.13590507 0.00573,-0.21518393 0.013373,0.0242031 0.00955,0.31865331 0.00955,-0.16730482 0.00442,0.0214589 V 1.573931 H -1.7495786 V 0.6126633 l 7.449e-4,8.531e-4 0.017192,-0.03293 0.00382,0.0200823 h 0.00764 l 0.00573,-0.0195656 0.011461,-0.0113242 0.019102,-0.001031 0.015282,0.0252054 0.013372,-0.008241 0.00573,0.0118409 0.015282,-0.03293 0.00955,0.0432429 0.017192,0.005159 0.00491,0.004642 0.00628,0.0812617 0.011461,-0.004121 0.026743,0.7346051 0.011461,-0.3840332 0.011461,-0.33306872 0.015282,0.0530248 0.013371,0.13230023 0.015282,0.0998682 0.022922,0.0303686 0.00764,-0.29343105 0.00764,0.0416838" /><path
       inkscape:connector-curvature="0"
       style="vector-effect:non-scaling-stroke;fill:#ffffff;fill-opacity:1;stroke-width:0.54029047"
       id="path78"
       shaper:pathType="exterior"
       shaper:cutDepth="0"
       d="m -0.99838872,0.76427216 0.00764,0.0159616 0.007319,-0.0749653 -0.0190934,-0.00147 0.004127,0.0604755" /><path
       inkscape:connector-curvature="0"
       style="vector-effect:non-scaling-stroke;fill:#ffffff;fill-opacity:1;stroke-width:0.54029047"
       id="path80"
       shaper:pathType="exterior"
       shaper:cutDepth="0"
       d="m -0.99074789,0.78023083 -0.00764,-0.0159616 -0.004132,-0.0604831 0.0190934,0.00147 -0.007319,0.0749688" /><path
       inkscape:connector-curvature="0"
       style="vector-effect:non-scaling-stroke;fill:#ffffff;fill-opacity:1;stroke-width:0.54029047"
       id="path82"
       shaper:pathType="exterior"
       shaper:cutDepth="0"
       d="m -0.85335041,0.75687105 -0.0203585,-0.0137342 -4.143e-4,-2.4947e-4 -0.0113108,-0.006459 0.0226706,-0.0514282 0.009413,0.0718763" /><path
       inkscape:connector-curvature="0"
       style="vector-effect:non-scaling-stroke;fill:#ffffff;fill-opacity:1;stroke-width:0.54029047"
       id="path84"
       shaper:pathType="exterior"
       shaper:cutDepth="0"
       d="m -0.87371127,0.74311906 0.0203586,0.0137342 -0.009413,-0.0718763 -0.0226706,0.0514282 0.0113108,0.006459 4.156e-4,2.5129e-4" /><path
       inkscape:connector-curvature="0"
       style="vector-effect:non-scaling-stroke;fill:#ffffff;fill-opacity:1;stroke-width:0.54029047"
       id="path86"
       shaper:pathType="exterior"
       shaper:cutDepth="0"
       d="m -0.76252498,0.8740419 -9.0879e-4,0.0158503 -0.00127,-0.0195255 8.4869e-4,0.001439 0.00133,0.00225" /><path
       inkscape:connector-curvature="0"
       style="vector-effect:non-scaling-stroke;fill:#ffffff;fill-opacity:1;stroke-width:0.54029047"
       id="path88"
       shaper:pathType="exterior"
       shaper:cutDepth="0"
       d="m -0.76343265,0.88988098 9.0878e-4,-0.0158503 -0.00133,-0.002254 -8.4869e-4,-0.001439 0.00127,0.0195255" /><path
       inkscape:connector-curvature="0"
       style="vector-effect:non-scaling-stroke;fill:#ffffff;fill-opacity:1;stroke-width:0.54029047"
       id="path90"
       shaper:pathType="exterior"
       shaper:cutDepth="0"
       d="m -0.76252498,0.8740419 0.006736,-0.11749106 0.00764,0.12766721 0.0210134,-0.14465523 0.0171912,0.19974046 0.0133734,-0.0252054 0.0171912,-0.10810609 0.01528,-0.0993559 0.005724,-0.0705252 0.0114623,0.0612591 0.00764,0.091118 0.009547,0.008241 0.01528,-0.0725856 0.0133734,-0.0118409 0.009547,0.31247941 0.0210134,-0.21157911 0.0191023,0.0365696 0.0114623,-0.19304657 0.01528,0.31865339 0.01528,-0.20385717 0.0114623,0.0751582 0.0133734,-0.0993524 0.0171912,0.1534054 0.00382,0.0519927 0.0171912,0.0772186 0.006607,0.4332822 -0.29822401,-0.54515925 -0.0238199,-0.0427039 -7.322e-4,-0.00128" /><path
       inkscape:connector-curvature="0"
       style="vector-effect:non-scaling-stroke;fill:#ffffff;fill-opacity:1;stroke-width:0.54029047"
       id="path92"
       shaper:pathType="exterior"
       shaper:cutDepth="0"
       d="m -0.75579183,0.7565503 -0.006736,0.11749107 7.5064e-4,0.001281 0.0238199,0.0427039 0.29822401,0.54515953 -0.006606,-0.4332822 -0.0171912,-0.0772185 -0.00382,-0.0519927 -0.0171912,-0.1534054 -0.0133734,0.0993559 -0.0114623,-0.0751582 -0.01528,0.20385761 -0.01528,-0.31865339 -0.0114623,0.19304657 -0.0191023,-0.0365696 -0.0210134,0.21157911 -0.009547,-0.31247941 -0.0133734,0.0118409 -0.01528,0.0725856 -0.009547,-0.008241 -0.00764,-0.091118 -0.0114623,-0.0612587 -0.005724,0.0705252 -0.01528,0.0993559 -0.0171912,0.10810609 -0.0133734,0.0252054 -0.0171912,-0.19973645 -0.0210134,0.14465524 -0.007658,-0.12767078" /><path
       inkscape:connector-curvature="0"
       style="vector-effect:non-scaling-stroke;fill:#ffffff;fill-opacity:1;stroke-width:0.54029047"
       id="path94"
       shaper:pathType="exterior"
       shaper:cutDepth="0"
       d="m -0.76470393,0.87035322 -2.7842e-4,-4.7003e-4 -2.7847e-4,-4.6998e-4 -0.0170397,-0.0274729 0.009319,-0.0987657 0.008277,0.12718832" /><path
       inkscape:connector-curvature="0"
       style="vector-effect:non-scaling-stroke;fill:#ffffff;fill-opacity:1;stroke-width:0.54029047"
       id="path96"
       shaper:pathType="exterior"
       shaper:cutDepth="0"
       d="m -0.7649832,0.86988319 2.7843e-4,4.7003e-4 -0.008277,-0.12718832 -0.009319,0.0987657 0.0170397,0.0274729 2.8088e-4,4.6887e-4" /><path
       inkscape:connector-curvature="0"
       style="vector-effect:non-scaling-stroke;fill:#ffffff;fill-opacity:1;stroke-width:0.54029047"
       id="path98"
       shaper:pathType="exterior"
       shaper:cutDepth="0"
       d="m -0.79017565,0.92540158 -0.0116716,-0.11197465 0.007854,0.0110257 3.052e-4,4.388e-4 0.011391,0.0170397 -0.007876,0.0834705" /><path
       inkscape:connector-curvature="0"
       style="vector-effect:non-scaling-stroke;fill:#ffffff;fill-opacity:1;stroke-width:0.54029047"
       id="path100"
       shaper:pathType="exterior"
       shaper:cutDepth="0"
       d="m -0.80184684,0.81342853 0.0116716,0.11197465 0.007876,-0.0834705 -0.011391,-0.0170397 -3.0515e-4,-4.3885e-4 -0.007849,-0.0110257" /><path
       inkscape:connector-curvature="0"
       style="vector-effect:non-scaling-stroke;fill:#ffffff;fill-opacity:1;stroke-width:0.54029047"
       id="path102"
       shaper:pathType="exterior"
       shaper:cutDepth="0"
       d="m -0.82215504,0.78829201 0.015182,0.0182291 0.005123,0.006905 -0.007431,-0.0712936 -0.0128744,0.0461569" /><path
       inkscape:connector-curvature="0"
       style="vector-effect:non-scaling-stroke;fill:#ffffff;fill-opacity:1;stroke-width:0.54029047"
       id="path104"
       shaper:pathType="exterior"
       shaper:cutDepth="0"
       d="m -0.8069698,0.80653643 -0.015182,-0.0182291 0.0128789,-0.0461529 0.007431,0.0712937 -0.005123,-0.006905" /><path
       inkscape:connector-curvature="0"
       style="vector-effect:non-scaling-stroke;fill:#ffffff;fill-opacity:1;stroke-width:0.54029047"
       id="path106"
       shaper:pathType="exterior"
       shaper:cutDepth="0"
       d="m -0.82837985,0.81060337 0.006228,-0.0223098 -0.008326,-0.009988 0.002102,0.0322975" /><path
       inkscape:connector-curvature="0"
       style="vector-effect:non-scaling-stroke;fill:#ffffff;fill-opacity:1;stroke-width:0.54029047"
       id="path108"
       shaper:pathType="exterior"
       shaper:cutDepth="0"
       d="m -0.82215504,0.78829201 -0.006228,0.0223098 -0.002103,-0.0322975 0.008326,0.009988" /><path
       inkscape:connector-curvature="0"
       style="vector-effect:non-scaling-stroke;fill:#ffffff;fill-opacity:1;stroke-width:0.54029047"
       id="path110"
       shaper:pathType="exterior"
       shaper:cutDepth="0"
       d="m -0.83048229,0.77830779 -0.0192582,-0.0184875 0.0118097,-0.0959292 0.007448,0.11442122" /><path
       inkscape:connector-curvature="0"
       style="vector-effect:non-scaling-stroke;fill:#ffffff;fill-opacity:1;stroke-width:0.54029047"
       id="path112"
       shaper:pathType="exterior"
       shaper:cutDepth="0"
       d="m -0.84974035,0.75981983 0.0192582,0.0184875 -0.007448,-0.11442122 -0.0118097,0.0959333" /><path
       inkscape:connector-curvature="0"
       style="vector-effect:non-scaling-stroke;fill:#ffffff;fill-opacity:1;stroke-width:0.54029047"
       id="path114"
       shaper:pathType="exterior"
       shaper:cutDepth="0"
       d="m -0.85070251,0.75901721 9.6229e-4,8.0414e-4 -0.001561,0.0126962 -0.002047,-0.0156275 0.002593,0.002107 5.324e-5,3.711e-5" /><path
       inkscape:connector-curvature="0"
       style="vector-effect:non-scaling-stroke;fill:#ffffff;fill-opacity:1;stroke-width:0.54029047"
       id="path116"
       shaper:pathType="exterior"
       shaper:cutDepth="0"
       d="m -0.84974035,0.75981983 -9.6224e-4,-8.0409e-4 -5.654e-5,-4.678e-5 -0.002593,-0.002107 0.002047,0.0156275 0.001565,-0.0126962" /><path
       inkscape:connector-curvature="0"
       style="vector-effect:non-scaling-stroke;fill:#ffffff;fill-opacity:1;stroke-width:0.54029047"
       id="path118"
       shaper:pathType="exterior"
       shaper:cutDepth="0"
       d="m -0.88568623,0.73698833 -0.009551,0.11582808 -0.0171912,0.0123621 -0.005733,-0.0731014 -0.0191023,0.13384472 -0.0229201,-0.0710411 -0.003809,-0.14650392 0.0465333,0.0133288 0.0320257,0.0147366 -2.5023e-4,5.6393e-4" /><path
       inkscape:connector-curvature="0"
       style="vector-effect:non-scaling-stroke;fill:#ffffff;fill-opacity:1;stroke-width:0.54029047"
       id="path120"
       shaper:pathType="exterior"
       shaper:cutDepth="0"
       d="m -0.89523731,0.852816 0.009551,-0.11582807 2.4947e-4,-5.6799e-4 -0.0320257,-0.0147366 -0.0465333,-0.0133288 0.003809,0.14650749 0.0229201,0.0710411 0.0191023,-0.13384471 0.005733,0.0731014 0.0171912,-0.0123621" /><path
       inkscape:connector-curvature="0"
       style="vector-effect:non-scaling-stroke;fill:#ffffff;fill-opacity:1;stroke-width:0.54029047"
       id="path122"
       shaper:pathType="exterior"
       shaper:cutDepth="0"
       d="m -0.43572252,1.4705084 0.0237665,-0.48178786 0.0114623,0.31505216 0.01528,-0.1184008 0.0163046,0.3885603 h -0.0102461 l -0.0565674,-0.1034246" /><path
       inkscape:connector-curvature="0"
       style="vector-effect:non-scaling-stroke;fill:#ffffff;fill-opacity:1;stroke-width:0.54029047"
       id="path124"
       shaper:pathType="exterior"
       shaper:cutDepth="0"
       d="m -0.41195381,0.98872054 -0.0237665,0.48178786 0.0565763,0.103421 h 0.0102461 l -0.0163091,-0.3885598 -0.01528,0.1184007 -0.0114623,-0.31505212" /><path
       inkscape:connector-curvature="0"
       style="vector-effect:non-scaling-stroke;fill:#ffffff;fill-opacity:1;stroke-width:0.54029047"
       id="path126"
       shaper:pathType="exterior"
       shaper:cutDepth="0"
       d="M 3.7970463,-0.57383607 H 3.0652447 L 2.6807246,0.44752 l 0.01332,0.10414481 0.00764,-0.027807 0.017196,-0.028845 0.0057,-0.0283238 0.026729,0.086485 0.01528,-0.0710411 0.013365,0.0525085 0.00575,-0.081852 0.011449,0.0679525 0.013364,-0.027807 0.00953,0.044787 0.00953,-0.10192854 0.013365,0.0247243 0.013364,0.0164828 0.021027,0.0195656 0.00953,0.0576579 0.00953,-0.1127395 0.011449,0.1168562 0.00953,-0.0525085 0.00766,-0.006161 0.017196,-0.0648635 0.01528,0.10347302 0.022898,-0.0525085 0.017196,-0.0200823 0.00766,-0.0195656 0.022898,0.11273951 0.017196,-0.0530249 0.0057,-0.009279 0.017196,0.0365696 0.011493,-0.0344892 0.00192,-0.006161 0.013365,-0.0391267 0.00766,0.091118 0.019111,-0.0118409 0.01528,0.0149237 0.0057,-0.0700129 0.00953,0.0391267 0.00953,0.006161 0.00766,-0.0144024 0.00766,0.0221271 0.00953,-0.0283237 0.013364,0.0262478 0.00953,0.0211248 0.00766,-0.0355272 0.00766,0.0576579 0.0057,-0.046331 0.011494,0.0422139 0.0057,-0.0875132 0.00953,-0.0324489 0.013364,0.0576579 0.00953,0.008763 0.019111,0.008763 0.01528,5.1453e-4 0.00192,-0.004121 0.011493,-0.0720697 0.0057,0.0314065 0.01528,0.0566257 0.00383,-0.0308853 0.00575,-0.004121 0.0057,0.0334512 0.021027,0.009279 0.00953,-0.0592024 0.0057,0.054053 0.017196,5.1453e-4 0.00953,0.004121 0.00766,0.0200823 0.013364,-0.0792789 0.00766,0.0170041 0.011493,-0.004642 0.011493,0.04942 0.00383,-5.1453e-4 0.01528,-0.11325537 0.019111,0.10553338 0.00766,-0.009279 0.012384,0.028845 0.00287,-0.11840069 0.0057,0.12818304 0.01528,-0.0463315 0.0057,0.0463315 0.00953,-0.0355272 0.014033,0.0358613 0.00127,-0.0394519 0.00601,0.0331884 0.0016,-0.0589128 0.011449,0.03293 0.01528,-0.00568 0.011449,-0.0138857 0.00192,-0.007203 0.010513,0.050192 0.014345,-0.018786 0.00383,5.1453e-4 0.00566,-0.0440626 0.002,-0.0166699 0.00383,0.0519927 0.00953,0.0221271 0.00189,-0.002065 0.00189,-0.0236863 0.01528,0.0411804 0.011494,-0.0144024 0.00766,-0.0592024 0.011493,0.0592024 0.013365,-0.0174852 0.00766,-0.0427262 0.00766,0.0360484 0.00855,0.0272858 0.00287,-0.0406681 0.013365,0.0416971 0.00383,0.002065 0.01528,-0.0453029 0.0057,0.0200823 0.00383,-0.0123621 0.011672,0.0545471 0.00363,-0.0478533 0.012162,0.0447162 0.00118,-0.0565553 0.00189,0.0514804 0.00383,-0.0797912 0.00646,0.0754518 0.00118,-0.10376616 0.013364,0.10759018 0.00575,-0.0416971 0.013364,-0.001031 0.010825,0.0357499 0.010157,-0.0476047 0.00953,0.0422139 0.00953,-0.0283238 0.0057,-0.0267646 0.00953,0.0416971 0.00383,-0.0298473 0.011449,0.0303685 0.00953,-0.0154449 0.011493,0.0365696 0.01528,-0.0118409 0.00766,0.0108029 0.00953,-0.0149237 0.00383,-0.027807 0.013944,0.0503297 0.00323,-0.064741 0.00383,0.0231651 0.0086,-0.0473596 0.00287,0.0499359 0.00243,0.039002 0.01283,-0.004009 0.011716,0.009244 0.00356,-0.0622539 0.00189,0.0180064 0.00383,-0.0102817 0.00114,0.0472073 0.012206,0.0119924 0.00766,-0.0839124 0.00383,0.0576543 0.012785,0.0142554 5.346e-4,-0.016817 0.013364,0.005159 0.0057,-0.0648635 0.00953,0.0756745 0.00953,-0.0669243 0.00383,0.0545689 0.00584,0.0153335 0.00178,-0.0626847 0.00521,-0.009542 0.01234,0.0742971 0.00726,-0.0558795 -0.4079994,-1.09063127" /><path
       inkscape:connector-curvature="0"
       style="vector-effect:non-scaling-stroke;fill:#ffffff;fill-opacity:1;stroke-width:0.54029047"
       id="path130"
       shaper:pathType="exterior"
       shaper:cutDepth="0"
       d="m 4.2392075,0.60824955 -0.00936,0.0216816 -0.00766,0.008763 -0.017196,-0.0329301 -0.00383,0.0200823 h -0.00766 l -0.0057,-0.0195656 -0.011493,-0.0113242 -0.019111,-0.001031 -0.01528,0.0252054 -0.013365,-0.008241 -0.00575,0.0118409 -0.01528,-0.0329301 -0.00953,0.043243 -0.017196,0.005159 -0.011449,0.0108029 -0.00953,-0.00772 -0.013365,-0.0411804 -0.01528,0.004121 -0.017196,0.033968 -0.013364,-0.027807 -0.0057,0.0221271 -0.00953,-0.0334513 -0.01528,-0.001031 -0.00766,0.0134001 -0.013364,-0.0236863 -0.019067,0.0226438 -0.0057,-0.004121 -0.00383,-0.008241 -0.013364,0.0283238 -0.00766,-0.0334468 -0.00953,0.0164828 -0.011493,0.007203 -0.0057,0.009765 -0.013365,0.010803 -0.028644,-0.0314065 -0.00766,0.008763 -0.019067,-0.004121 -0.032476,0.0705252 -0.022942,-0.0679525 -0.01528,0.0772185 -0.028644,-0.0689807 -0.021027,-0.0257266 -0.03056,0.0499359 -0.00766,-0.0211248 -0.01528,0.0519927 -0.00953,-0.0324444 -0.011493,-0.0267646 -0.0057,0.008763 -0.034391,0.0180064 -0.01528,-0.0190444 -0.022898,0.0509645 -0.017196,-0.0628032 -0.00766,0.071041 -0.01528,-0.0174852 -0.013364,-0.0638354 -0.01528,0.0679525 -0.017196,-0.0576579 -0.00766,-0.004642 -0.013364,0.0123621 -0.011493,-0.0391267 -0.00953,0.024203 -0.011449,0.0154449 -0.021027,0.0391267 -0.00359,-0.0624878 -0.021249,0.0321148 -0.00766,0.0777349 -0.01528,-0.10244488 -0.017196,0.0870009 -0.019111,-0.0314065 -0.021027,-0.0319277 -0.011449,-0.0108029 -0.01528,0.0504482 -0.011449,-0.039639 -0.0057,0.0504482 -0.00766,0.0185232 -0.00762,-0.081848 -0.013364,-0.0154449 -0.00953,0.0782472 -0.017196,-0.0648635 -0.017196,0.0813357 -0.013364,-0.0633195 -0.0057,0.0478755 -0.00383,-0.0308853 -0.00953,-0.0375764 -0.00383,0.0180064 -0.01528,-0.0478755 -0.00766,0.0900899 -0.018176,-0.0707849 -0.00481,0.0398929 -0.0057,-0.0478755 -0.013364,0.0170041 -0.0057,0.0674366 -0.011449,-0.0674366 -0.00383,-0.0144024 -0.011493,0.0638354 -0.0057,-0.0555975 -0.00953,0.0427262 -0.0057,-0.0725855 -0.00383,0.057142 -0.01528,0.0128833 -0.00383,0.0422139 -0.0057,-0.0262478 -0.011449,-0.0509645 -0.00383,0.0782472 -0.00383,-0.0628032 -0.01528,0.0406681 -0.00953,-0.0880295 -0.00953,0.11171088 -0.00953,-0.0633195 -0.017196,-0.033968 -0.017196,0.0566257 -0.0057,0.0298473 -0.00953,-0.0782472 -0.017196,0.10604571 -0.011493,-0.0597147 -0.0057,-0.0550817 -0.00953,0.007203 -0.00953,0.0530249 -0.00953,-0.0128833 -0.00766,-0.0555975 -0.00766,0.0756745 -0.011493,-0.046331 -0.00575,-0.006682 -0.019111,0.057142 -0.01528,-0.002065 -0.0057,-0.0478755 -0.00766,0.0792789 -0.019111,-0.0380932 -0.015302,-0.0272858 -0.015302,0.0247243 -0.024836,0.0535372 -0.021005,0.0777308 L 2.5836678,0.70588972 2.2568399,1.5740045 H 2.936664 L 3.044092,1.2215756 h 0.7517294 l 0.1071519,0.3524218 h 0.697448 L 4.2392075,0.60824955" /><path
       inkscape:connector-curvature="0"
       style="vector-effect:non-scaling-stroke;fill:#ffffff;fill-opacity:1;stroke-width:0.54029047"
       id="path134"
       shaper:pathType="exterior"
       shaper:cutDepth="0"
       d="m -0.19418966,0.73184069 0.00764,0.21157916 0.0114623,0.0360484 0.0133734,0.11685625 0.0133734,0.00928 0.0133734,-0.091634 0.0191023,-0.14362666 0.0210134,0.41234676 0.01337338,-0.32122961 0.0095467,-0.0128834 0.01528005,0.0242031 0.0057244,-0.003089 0.01719117,0.10295721 0.00764,-0.040156 0.0095467,-0.0504482 0.00954668,0.3778557 0.03056454,-0.1961356 0.02674231,0.1168562 0.0324712,-0.1400222 0.004359,-0.1026525 0.28668248,0.5359994 h -0.73440377 l 0.005938,-0.5502043 0.009547,-0.0689806 0.0248312,0.588405 0.0114623,-0.4339678 0.0229245,0.4334528 0.0191023,-0.4885355 0.009547,-0.19768024 0.0229201,0.48287314 0.0210134,-0.51736388 0.0191157,-0.0900935" /><path
       inkscape:connector-curvature="0"
       style="vector-effect:non-scaling-stroke;fill:#ffffff;fill-opacity:1;stroke-width:0.54029047"
       id="path138"
       shaper:pathType="exterior"
       shaper:cutDepth="0"
       d="M 1.615355,1.0600086 1.588136,1.0995006 1.55509,1.1317976 1.514373,1.1586026 1.469892,1.1769786 1.422987,1.1882626 1.374904,1.1937926 1.328447,1.194717 1.282778,1.191657 1.23986,1.184527 1.194868,1.171608 1.153358,1.15353 1.115332,1.130254 1.080789,1.101819 1.049726,1.068221 1.023843,1.030524 1.003217,0.9888848 0.9870237,0.9441499 0.9746838,0.8973248 0.9730358,0.9263925 0.9640818,0.8388975 0.9627228,0.8291725 0.9537908,0.7420896 0.9462848,0.8302007 0.9424758,0.8744148 0.9334768,0.8310026 l -5.5685e-4,3.488e-5 -0.007774,-0.0374695 -0.0191112,-0.04942 -0.001737,0.0886826 1.0469e-4,-6.68e-6 -0.007751,0.39371 -0.0210045,-0.39175478 -2.294e-5,-1.5334e-4 -4.4548e-4,2.785e-5 -0.0149682,-0.099768 -0.002896,0.10088928 8.642e-5,-5.57e-6 -0.002762,0.0963079 -0.009845,-0.0955172 -3.5639e-4,2.192e-5 -0.009043,-0.0877957 -0.005435,0.0887013 2.049e-5,-1.47e-6 -0.005925,0.0966532 -0.0306937,-0.0392871 -0.0151464,-0.0266176 -0.007083,-0.027063 -6.6823e-4,4.16e-5 -0.013409,-0.0512389 -0.0171956,0.0411804 -0.009556,-0.10450169 -0.006638,0.11748393 3.007e-5,-1.87e-6 -0.0123621,0.21869974 -0.015926,-0.21693251 -2.8956e-4,1.818e-5 -0.00686,-0.0935312 -0.002985,0.0941473 8.018e-5,-5.21e-6 L 0.67504023,1.1709462 0.64829792,0.89347502 0.62729343,1.1719784 0.61392896,0.85898667 0.5910089,1.1889669 0.5833689,0.91097978 0.5718977,0.87339888 0.5489732,0.88780128 0.5260531,1.1240903 0.5154729,0.85715476 l -2.2274e-4,1.413e-5 -0.002717,-0.0682345 -0.008397,0.0689286 -0.008642,0.0700909 -0.0210134,0.0633195 -0.0267423,-0.027807 -0.009547,-0.0545689 -0.00362,-0.0466874 -3.007e-4,1.894e-5 -0.0153291,-0.19788051 -0.0114623,0.0782472 -0.005199,0.12163449 5.809e-5,-3.74e-6 -0.0100011,0.23411733 -0.0135649,-0.23263967 -2.6284e-4,1.635e-5 -0.007337,-0.12569595 -0.006633,0.1265682 3.831e-5,-2.22e-6 -0.008669,0.16542269 0.009395,0.033451 0.0152088,0.045585 0.0175921,0.044107 0.0199754,0.042633 0.0223587,0.041158 0.0247421,0.039679 0.0271252,0.0382 0.0295088,0.036717 0.0318921,0.035233 0.0350015,0.033897 0.0376388,0.030034 0.033086,0.022198 0.0357277,0.020528 0.0383738,0.018897 0.04102,0.017262 0.0436617,0.015627 0.0463057,0.013957 0.0364627,0.00939 0.0379551,0.00846 0.0394385,0.00754 0.0409265,0.00661 0.042414,0.00572 0.043902,0.00479 0.045388,0.00386 0.046876,0.00293 0.048364,0.002 0.033068,8.219e-4 0.033732,4.099e-4 0.04625,-1.474e-4 0.047513,-0.00122 0.046203,-0.00232 0.044893,-0.00342 0.043582,-0.00453 0.042272,-0.00564 0.040962,-0.00672 0.047424,-0.00954 0.045535,-0.011137 0.043648,-0.012696 0.041764,-0.014291 0.039875,-0.01589 0.044276,-0.020492 0.042089,-0.022497 0.039906,-0.024537 0.037728,-0.026542 0.035527,-0.028587 0.033376,-0.030591 0.031184,-0.032632 0.028992,-0.034636 0.026805,-0.036681 0.024466,-0.038365 0.021762,-0.039194 0.019,-0.039969 0.01626,-0.040744 0.01352,-0.041519 0.010758,-0.042294 0.00802,-0.0430693 0.0053,-0.0438488 0.00254,-0.04462 L 2.2842118,0.8488849 2.2808218,0.8024496 2.2804654,0.7991796 2.2754054,0.7636524 2.2653824,0.7164117 2.2517284,0.670593 2.2470484,0.67464 2.2336844,0.7281772 2.2222134,0.7503043 2.1954844,0.7291795 2.1725774,0.8264751 2.1553814,0.7209417 2.1305454,0.7502678 2.1152434,0.6828312 l -0.024836,0.0216059 -0.00953,-0.0344892 -0.00764,-0.044787 -0.021005,0.0499323 -0.022907,0.0926625 -0.021005,-0.15752607 -0.011471,0.044272 -0.015302,0.0566257 -0.024831,-0.009765 -0.011471,-0.0272858 -0.013365,-0.0468473 -0.019111,0.14517106 -0.01528,-0.005159 -0.013365,0.0174852 -0.00764,-0.0679525 -0.019111,0.0144024 -0.00956,0.0746423 -0.02292,-0.0190444 -0.00956,-0.0159616 -0.019111,-0.0138857 -0.019111,-0.044272 -0.028653,0.18275193 -0.032471,-0.061775 -0.017196,0.0473597 -0.017196,-0.18223606 -0.00572,0.0550816 -0.01528,-0.078763 -0.011471,0.0921462 -0.011471,-0.0751582 -0.00956,0.12612268 -0.02292,-0.003608 -0.021005,-0.18069157 -0.01528,0.0839123 -0.01528,0.0236863 -0.00956,-0.0164828 -0.013365,0.0422139 -0.021004,-0.0468474 -0.00584,0.0626508 0.040347,0.0231651 0.036574,0.0320034 0.028961,0.0377457 0.019378,0.0426817 0.00784,0.0480836 -0.00474,0.0481687 -0.016973,0.045084" /><path
       inkscape:connector-curvature="0"
       style="vector-effect:non-scaling-stroke;fill:#ffffff;fill-opacity:1;stroke-width:0.54029047"
       id="path142"
       shaper:pathType="exterior"
       shaper:cutDepth="0"
       d="m 1.0694315,0.04539509 -0.030957,-0.03556731 -0.015302,-0.04524719 0.00423,-0.0477566 0.019512,-0.04383991 0.031104,-0.0351931 0.039376,-0.0261721 0.011516,-0.005087 0.045829,-0.0137342 0.047168,-0.006348 0.048061,-0.001058 0.045776,0.003038 0.045822,0.007796 0.044798,0.0137342 0.042615,0.020902 0.036783,0.0272858 0.031331,0.034565 0.024359,0.03891733 0.018443,0.04176843 0.013498,0.04321624 0.010246,0.04792766 0.6276775,-0.03697503 -0.00131,-0.0104332 -0.00617,-0.04075718 -0.00753,-0.03934054 -0.01136,-0.04718504 -0.01352,-0.0449723 -0.015636,-0.0427618 -0.017775,-0.0405523 -0.019935,-0.0383382 -0.022096,-0.0361242 -0.024203,-0.0339324 -0.026359,-0.031705 -0.028511,-0.0294776 -0.030663,-0.0272858 -0.032796,-0.0250584 -0.035064,-0.0230181 -0.037461,-0.0211604 -0.039853,-0.0192671 -0.042245,-0.0174095 -0.04464,-0.0155562 -0.047034,-0.0136629 -0.039349,-0.009578 -0.040882,-0.008388 -0.042414,-0.007203 -0.043947,-0.005978 -0.045479,-0.004789 -0.047009,-0.003597 -0.048542,-0.002392 -0.037412,-0.001011 -0.038276,-3.3638e-4 -0.041501,3.297e-4 -0.040379,9.912e-4 -0.048903,0.00217 -0.047154,0.003196 -0.045403,0.004232 -0.043657,0.00527 -0.041907,0.006312 -0.0479807,0.00891 -0.0454637,0.0103931 -0.0429445,0.011881 -0.0404275,0.0133645 -0.0439825,0.0174852 -0.0411091,0.0192671 -0.0387882,0.0207907 -0.0414878,0.0255796 -0.0384585,0.0275843 -0.0354292,0.0295488 -0.0323955,0.0315179 -0.0293662,0.0335225 -0.0263369,0.0354916 -0.0233121,0.0370864 -0.022626,0.0424411 -0.0188216,0.0431672 -0.0150172,0.0438934 -0.0112083,0.04461595 -0.007399,0.04534386 -0.003588,0.04606777 2.0626e-4,0.0485549 0.00398,0.04872953 0.00776,0.04693646 0.0115291,0.0451394 0.0478635,0.0608061 0.0267423,-0.0916339 0.0229201,-0.20128094 0.0133645,-0.04890772 0.0362934,0.20334129 0.0362935,0.14928826 0.0362934,-0.34130662 0.01528,0.22239012 0.0362934,0.0803076 0.0401157,0.03861 0.0305645,-0.16164326 0.0324712,0.15443758 0.0248312,0.0936907 0.0382046,-0.1045012 0.0515757,-0.0216059 0.0286534,0.0329301 0.0267423,-0.0859687 0.0420268,0.0787631 0.019111,0.0170041 0.038205,0.0453029 0.024831,-0.13281605 0.034387,0.0561134 0.061127,0.11119501 0.019111,-0.10862235 0.03056,0.10759017 0.030564,-0.0468473 0.032471,-0.0283237 0.070678,-0.0463311 0.024831,0.11582805 0.042027,0.0319277 0.057307,-0.10192854 0.032471,0.15958284 0.013365,0.0731014 0.013365,-0.043243 0.013365,-0.12509406 0.021004,-0.0170041 0.036293,0.0592023 0.00956,-0.0365696 0.030564,0.13538869 0.01528,-0.1008968 0.019111,0.0350104 L 1.725582,0.23936046 1.6927143,0.22885598 1.6465512,0.21482329 1.6039586,0.20257253 1.5593168,0.1903574 1.5126236,0.17814227 1.4709666,0.16767344 1.4278038,0.15724024 1.3831353,0.14680705 1.336961,0.13637385 1.2918426,0.1265376 1.2452674,0.11603313 1.1994763,0.10408084 1.1528031,0.08934428 1.109765,0.07163636 1.0694088,0.04542864" /><path
       inkscape:connector-curvature="0"
       style="vector-effect:non-scaling-stroke;fill:#ffffff;fill-opacity:1;stroke-width:0.54029047"
       id="path146"
       shaper:pathType="exterior"
       shaper:cutDepth="0"
       d="m 1.8844971,0.29973418 -0.043662,-0.0185989 -0.00218,-8.8651e-4 -0.00443,-0.001766 -0.044125,-0.016817 0.011894,0.15616376 0.026742,-0.002065 0.022925,-0.0931784 0.013365,0.0633195 0.01528,0.0206036 0.011471,0.0416972 0.013365,-0.0720697 0.021005,0.0592024 0.032471,-0.04942 0.00956,0.0998682 0.017196,-0.0355272 0.015302,-0.0525085 0.017196,0.027807 0.028658,0.0303685 0.017329,-0.0487776 -0.013587,-0.0105045 -0.039064,-0.0275085 -0.039946,-0.0247599 -0.042802,-0.0234635 -0.043938,-0.0211604" /><path
       inkscape:connector-curvature="0"
       style="vector-effect:non-scaling-stroke;fill:#ffffff;fill-opacity:1;stroke-width:0.54029047"
       id="path148"
       shaper:pathType="exterior"
       shaper:cutDepth="0"
       d="m 1.8408352,0.28111961 0.043662,0.0185989 0.043933,0.0211604 0.042806,0.0234635 0.039946,0.0247599 0.039064,0.0275085 0.013587,0.0105045 -0.017329,0.0487777 -0.028658,-0.0303685 -0.017196,-0.027807 -0.015302,0.0525085 -0.017196,0.0355272 -0.00956,-0.0998682 -0.032471,0.04942 -0.021005,-0.0592023 -0.013365,0.0720697 -0.011471,-0.0416971 -0.01528,-0.0206036 -0.013364,-0.0633195 -0.02292,0.0931784 -0.026742,0.002065 -0.011894,-0.15616376 0.044125,0.016817 0.00443,0.001766 0.00218,8.8392e-4" /></g></svg>