<?xml version="1.0" encoding="UTF-8" standalone="no"?>
<svg
   xmlns:dc="http://purl.org/dc/elements/1.1/"
   xmlns:cc="http://creativecommons.org/ns#"
   xmlns:rdf="http://www.w3.org/1999/02/22-rdf-syntax-ns#"
   xmlns:svg="http://www.w3.org/2000/svg"
   xmlns="http://www.w3.org/2000/svg"
   xmlns:sodipodi="http://sodipodi.sourceforge.net/DTD/sodipodi-0.dtd"
   xmlns:inkscape="http://www.inkscape.org/namespaces/inkscape"
   viewBox="0 0 510 226"
   version="1.1"
   id="svg46"
   sodipodi:docname="logo_V2.svg"
   inkscape:version="0.92.4 (5da689c313, 2019-01-14)"
   width="510"
   height="226">
  <metadata
     id="metadata52">
    <rdf:RDF>
      <cc:Work
         rdf:about="">
        <dc:format>image/svg+xml</dc:format>
        <dc:type
           rdf:resource="http://purl.org/dc/dcmitype/StillImage" />
        <dc:title></dc:title>
      </cc:Work>
    </rdf:RDF>
  </metadata>
  <defs
     id="defs50" />
  <sodipodi:namedview
     pagecolor="#ffffff"
     bordercolor="#666666"
     borderopacity="1"
     objecttolerance="10"
     gridtolerance="10"
     guidetolerance="10"
     inkscape:pageopacity="0"
     inkscape:pageshadow="2"
     inkscape:window-width="2400"
     inkscape:window-height="1271"
     id="namedview48"
     showgrid="false"
     inkscape:zoom="0.944"
     inkscape:cx="61.992154"
     inkscape:cy="163.8703"
     inkscape:window-x="2391"
     inkscape:window-y="-9"
     inkscape:window-maximized="1"
     inkscape:current-layer="svg46"
     fit-margin-top="0"
     fit-margin-left="0"
     fit-margin-right="0"
     fit-margin-bottom="0" />
  <rect
     width="510"
     height="226"
     style="fill:#1e2a4d;stroke-width:1"
     id="rect2"
     x="0"
     y="0" />
  <g
     id="g883"
     transform="translate(-145.23045,-136.91768)">
    <path
       id="path4"
       style="fill:#ffffff"
       d="m 150,219.69 q 5.94,-0.9 12.2,-1.36 6.26,-0.46 12.08,-0.45 a 61.27,61.27 0 0 1 11.62,1.12 28.68,28.68 0 0 1 10.2,4 21.58,21.58 0 0 1 7.29,8 q 2.79,5.1 2.78,13.23 a 27.53,27.53 0 0 1 -2.52,12.4 22.58,22.58 0 0 1 -6.65,8.14 26.48,26.48 0 0 1 -9.36,4.45 42.49,42.49 0 0 1 -10.64,1.35 c -1.47,0 -2.71,-0.05 -3.75,-0.13 a 11.09,11.09 0 0 1 -1.93,-0.26 v 15.88 a 52.73,52.73 0 0 1 -6,0.84 c -1.77,0.13 -3.34,0.2 -4.71,0.2 -1.37,0 -3,-0.07 -4.71,-0.2 a 53.4,53.4 0 0 1 -5.88,-0.84 z m 21.31,34.22 a 13.26,13.26 0 0 0 1.61,0.19 c 0.65,0.05 1.18,0.07 1.61,0.07 a 11.78,11.78 0 0 0 7.43,-2.26 c 1.94,-1.51 2.9,-4.07 2.9,-7.69 a 8.94,8.94 0 0 0 -2.9,-7.16 10.57,10.57 0 0 0 -7.17,-2.52 h -1.48 a 15.25,15.25 0 0 0 -2,0.13 z"
       inkscape:connector-curvature="0" />
    <path
       id="path6"
       style="fill:#ffffff"
       d="m 246.46,242.93 a 7,7 0 0 0 -1.29,-3.87 7.74,7.74 0 0 0 -3,-2.39 14.32,14.32 0 0 0 -4,-1.16 30.43,30.43 0 0 0 -4.52,-0.33 43.67,43.67 0 0 0 -7.23,0.71 53.23,53.23 0 0 0 -8.53,2.26 c -0.77,-1.46 -1.44,-2.79 -2,-4 a 19.4,19.4 0 0 1 -1.29,-3.68 26.94,26.94 0 0 1 -0.64,-3.87 c -0.13,-1.34 -0.2,-2.86 -0.2,-4.59 a 83,83 0 0 1 12.33,-3.1 68.07,68.07 0 0 1 11,-1 42.68,42.68 0 0 1 12.14,1.61 24.17,24.17 0 0 1 9.23,5 22,22 0 0 1 5.88,8.58 33.83,33.83 0 0 1 2.07,12.46 v 37.84 c -3.27,0.95 -7.24,1.9 -11.88,2.84 a 73.45,73.45 0 0 1 -14.72,1.42 58.46,58.46 0 0 1 -12.34,-1.22 27.45,27.45 0 0 1 -9.62,-3.94 18.67,18.67 0 0 1 -6.26,-7.17 23.89,23.89 0 0 1 -2.26,-10.91 18.77,18.77 0 0 1 2.71,-10.46 20.38,20.38 0 0 1 7,-6.59 29.94,29.94 0 0 1 9.42,-3.42 55.06,55.06 0 0 1 10.07,-1 z m 0,13.69 h -7.36 a 14.14,14.14 0 0 0 -7.62,1.94 6.08,6.08 0 0 0 -3.1,5.42 6.42,6.42 0 0 0 1.17,4.07 7.5,7.5 0 0 0 2.9,2.26 13.16,13.16 0 0 0 3.75,1 29.28,29.28 0 0 0 3.68,0.26 31.64,31.64 0 0 0 3.35,-0.26 28.41,28.41 0 0 0 3.23,-0.51 z"
       inkscape:connector-curvature="0" />
    <path
       id="path8"
       style="fill:#ffffff"
       d="m 277.71,219.69 q 6.07,-0.78 12.59,-1.29 6.52,-0.51 12.33,-0.52 15.63,0 23.44,5.88 7.81,5.88 7.82,16.46 a 24.1,24.1 0 0 1 -0.91,7 22.63,22.63 0 0 1 -2.2,5.11 15.41,15.41 0 0 1 -2.71,3.42 c -0.95,0.86 -1.72,1.55 -2.32,2.06 l 14.72,28.15 a 48.57,48.57 0 0 1 -5.75,0.78 q -3.17,0.26 -6.13,0.26 c -2.41,0 -4.74,-0.09 -7,-0.26 a 36.54,36.54 0 0 1 -5.56,-0.78 l -14.33,-30.47 1.81,-1 q 4.51,-2.58 6.2,-5.48 a 12.42,12.42 0 0 0 1.67,-6.27 7.66,7.66 0 0 0 -2,-5.48 q -2,-2.13 -6.39,-2.13 a 20.68,20.68 0 0 0 -3.74,0.25 v 50.75 a 52.42,52.42 0 0 1 -6.07,0.84 c -1.81,0.13 -3.41,0.2 -4.78,0.2 -1.37,0 -3.06,-0.07 -4.78,-0.2 a 53.28,53.28 0 0 1 -5.94,-0.84 z"
       inkscape:connector-curvature="0" />
    <path
       id="path10"
       style="fill:#ffffff"
       d="m 346,222.66 q 4.53,-1.54 10.85,-3 a 71.86,71.86 0 0 1 16,-1.48 65,65 0 0 1 10.46,0.84 27.42,27.42 0 0 1 9.56,3.42 45.24,45.24 0 0 1 7.88,-3 37.14,37.14 0 0 1 10.2,-1.29 58,58 0 0 1 10.39,1 23.69,23.69 0 0 1 9.69,4.06 22.72,22.72 0 0 1 7.1,8.92 q 2.77,5.81 2.77,15.36 v 38.61 a 52,52 0 0 1 -6.06,0.84 c -1.81,0.13 -3.41,0.2 -4.78,0.2 -1.37,0 -3.1,-0.07 -4.91,-0.2 a 52.42,52.42 0 0 1 -6.07,-0.84 v -36.32 q 0,-6.85 -2.32,-9.82 -2.32,-2.97 -7.62,-3 a 16.16,16.16 0 0 0 -3.55,0.39 17,17 0 0 0 -2.39,0.65 41.8,41.8 0 0 1 1.16,10.33 v 37.7 a 52.42,52.42 0 0 1 -6.07,0.84 c -1.81,0.13 -3.4,0.2 -4.78,0.2 -1.38,0 -3.09,-0.07 -4.9,-0.2 a 52.12,52.12 0 0 1 -6.07,-0.84 v -36.25 q 0,-6.85 -2.2,-9.82 -2.2,-2.97 -7.49,-3 a 19.38,19.38 0 0 0 -3,0.26 6.28,6.28 0 0 0 -2,0.52 v 48.29 a 52.71,52.71 0 0 1 -6.07,0.84 c -1.81,0.13 -3.4,0.2 -4.78,0.2 -1.38,0 -3.1,-0.07 -4.91,-0.2 a 52.42,52.42 0 0 1 -6.07,-0.84 z"
       inkscape:connector-curvature="0" />
    <path
       id="path12"
       style="fill:#ffffff"
       d="m 482.13,287.74 a 38.86,38.86 0 0 1 -14.33,-2.45 27.63,27.63 0 0 1 -10.4,-7 30,30 0 0 1 -6.33,-11 44.5,44.5 0 0 1 -2.13,-14.14 46.09,46.09 0 0 1 2.13,-14.39 30.57,30.57 0 0 1 6.33,-11.17 27.92,27.92 0 0 1 10.4,-7.17 42.37,42.37 0 0 1 28.79,0 28,28 0 0 1 10.4,7.17 30.69,30.69 0 0 1 6.32,11.17 46.09,46.09 0 0 1 2.13,14.39 44.5,44.5 0 0 1 -2.13,14.14 30.11,30.11 0 0 1 -6.32,11 27.71,27.71 0 0 1 -10.4,7 39.24,39.24 0 0 1 -14.46,2.45 z m 0,-17.69 a 9.34,9.34 0 0 0 8.46,-4.39 q 2.78,-4.4 2.77,-12.53 -0.01,-8.13 -2.77,-12.65 a 9.34,9.34 0 0 0 -8.46,-4.39 q -5.69,0 -8.39,4.39 -2.7,4.39 -2.74,12.65 0,8.14 2.72,12.53 2.72,4.39 8.41,4.39 z"
       inkscape:connector-curvature="0" />
    <path
       id="path14"
       style="fill:#ffffff"
       d="m 524.1,222.66 a 112.09,112.09 0 0 1 11,-3 73.69,73.69 0 0 1 16.14,-1.48 67.14,67.14 0 0 1 11.37,1 25.78,25.78 0 0 1 10.26,4.06 22.63,22.63 0 0 1 7.49,8.92 q 2.91,5.81 2.91,15.36 v 38.61 a 52.42,52.42 0 0 1 -6.07,0.84 c -1.81,0.13 -3.4,0.2 -4.78,0.2 -1.38,0 -3.1,-0.07 -4.91,-0.2 a 52.27,52.27 0 0 1 -6.06,-0.84 v -36.35 q 0,-6.85 -2.59,-9.82 c -1.72,-2 -4.34,-3 -7.88,-3 a 19.59,19.59 0 0 0 -3,0.26 6.37,6.37 0 0 0 -2,0.52 v 48.29 a 52.42,52.42 0 0 1 -6.07,0.84 c -1.81,0.13 -3.4,0.2 -4.78,0.2 -1.38,0 -3.1,-0.07 -4.91,-0.2 a 52.27,52.27 0 0 1 -6.06,-0.84 z"
       inkscape:connector-curvature="0" />
    <path
       id="path16"
       style="fill:#ffffff"
       d="m 608,237.64 h -19.08 a 31.09,31.09 0 0 1 -0.84,-4.85 c -0.13,-1.5 -0.19,-2.94 -0.19,-4.32 0,-1.38 0.06,-2.8 0.19,-4.26 a 31.11,31.11 0 0 1 0.84,-4.78 H 649 a 31.11,31.11 0 0 1 0.84,4.78 c 0.13,1.46 0.19,2.88 0.19,4.26 0,1.38 -0.06,2.82 -0.19,4.32 a 31.09,31.09 0 0 1 -0.84,4.85 h -19.14 v 48.42 c -2.24,0.35 -4.27,0.6 -6.07,0.78 -1.8,0.18 -3.45,0.26 -4.91,0.26 -1.46,0 -3.1,-0.09 -4.91,-0.26 -1.81,-0.17 -3.79,-0.43 -5.94,-0.78 z"
       inkscape:connector-curvature="0" />
    <path
       id="path18"
       style="fill:#ffffff"
       d="m 156,316 v 46.2 h -6 V 316 Z"
       inkscape:connector-curvature="0" />
    <path
       id="path20"
       style="fill:#ffffff"
       d="M 171.83,362.18 V 316 h 6 l 28.26,37.22 V 316 h 5.66 v 46.2 h -6 l -28.26,-37.54 v 37.54 z"
       inkscape:connector-curvature="0" />
    <path
       id="path22"
       style="fill:#ffffff"
       d="m 226,360.56 v -5.49 a 46.59,46.59 0 0 0 15.7,2.58 q 11.91,0 11.92,-8.72 0,-7.43 -8.79,-7.43 h -5.94 q -14.51,0 -14.51,-12.6 0,-13.23 18.58,-13.24 a 55.8,55.8 0 0 1 15,1.94 v 5.49 a 42.81,42.81 0 0 0 -15,-2.58 q -12.6,0 -12.6,8.39 0,7.44 8.53,7.43 h 5.94 q 14.76,0 14.76,12.6 0,13.57 -17.89,13.57 A 60.83,60.83 0 0 1 226,360.56 Z"
       inkscape:connector-curvature="0" />
    <path
       id="path24"
       style="fill:#ffffff"
       d="m 303.36,316 v 4.85 h -14.54 v 41.35 h -6 V 320.83 H 268.31 V 316 Z"
       inkscape:connector-curvature="0" />
    <path
       id="path26"
       style="fill:#ffffff"
       d="M 314.37,362.18 V 316 h 19.71 q 13.17,0 13.18,11.08 0,9 -12.89,13.34 l 15.86,21.78 h -7.88 l -14.7,-20.77 v -3.93 q 13.25,-2.1 13.24,-10.18 0,-6.39 -7.36,-6.39 h -13.18 v 41.25 z"
       inkscape:connector-curvature="0" />
    <path
       id="path28"
       style="fill:#ffffff"
       d="M 360.11,344.35 V 316 h 6 v 28.37 q 0,13.31 13.25,13.3 13.25,-0.01 13.24,-13.3 V 316 h 6 v 28.37 q 0,18.15 -19.22,18.15 -19.22,0 -19.27,-18.17 z"
       inkscape:connector-curvature="0" />
    <path
       id="path30"
       style="fill:#ffffff"
       d="M 413.11,362.18 V 316 h 7.59 l 17,38.54 16.6,-38.54 h 7.27 v 46.2 h -5.33 v -37.9 l -16.41,37.9 h -4.72 l -16.67,-37.9 v 37.9 z"
       inkscape:connector-curvature="0" />
    <path
       id="path32"
       style="fill:#ffffff"
       d="m 506.65,316 v 4.85 h -24.22 v 15.5 h 23.1 v 4.85 h -23.1 v 16.15 h 24.71 v 4.85 H 476.45 V 316 Z"
       inkscape:connector-curvature="0" />
    <path
       id="path34"
       style="fill:#ffffff"
       d="M 520.09,362.18 V 316 h 6 l 28.26,37.22 V 316 H 560 v 46.2 h -6 l -28.27,-37.54 v 37.54 z"
       inkscape:connector-curvature="0" />
    <path
       id="path36"
       style="fill:#ffffff"
       d="m 606,316 v 4.85 h -14.5 v 41.35 h -6 V 320.83 H 571 V 316 Z"
       inkscape:connector-curvature="0" />
    <path
       id="path38"
       style="fill:#ffffff"
       d="m 616.4,360.56 v -5.49 a 46.63,46.63 0 0 0 15.7,2.58 q 11.92,0 11.92,-8.72 0,-7.43 -8.78,-7.43 h -6 q -14.5,0 -14.5,-12.6 0,-13.23 18.57,-13.24 a 55.75,55.75 0 0 1 15,1.94 v 5.49 a 42.77,42.77 0 0 0 -15,-2.58 q -12.58,0 -12.6,8.39 0,7.44 8.53,7.43 h 6 q 14.76,0 14.76,12.6 0,13.57 -17.9,13.57 a 60.89,60.89 0 0 1 -15.7,-1.94 z"
       inkscape:connector-curvature="0" />
    <path
       id="path40"
       style="fill:#ffffff;stroke:#ffffff;stroke-width:0.16523534px;stroke-miterlimit:10"
       d="m 373.68,195.07 a 49,49 0 0 1 7.37,-3.53 l 4.78,-2.45 1,-1.35 2.52,-1 5.71,-5.33 1.39,-0.5 1.42,-1.05 h 0.9 l 3.27,-0.72 2,-0.89 1.39,-0.37 3.67,-2.36 1.15,-1.06 0.87,-1.35 2.55,-1.71 1.83,-1 h 0.77 l 0.63,-0.67 h 0.94 l 2.41,-1.15 0.57,-0.54 v -0.48 l 1.14,-1.13 2.11,-1 0.85,-0.66 1.29,-1.2 2,-1.17 1.4,-0.51 1,-0.38 1,-0.79 1.57,-1.33 0.69,-0.25 1.88,-2.42 h 0.53 l 0.55,0.71 0.7,-0.11 0.58,-0.81 h 1 l 1.39,-1.19 0.3,-0.68 1.13,-0.51 h 0.47 l 0.51,-0.39 1,-0.11 0.43,-0.67 0.72,-0.81 0.84,-0.24 0.67,0.57 0.25,0.7 0.8,0.86 0.26,0.42 0.56,-0.26 0.7,-0.25 1,0.31 h 1 l 0.56,-0.26 0.83,-0.11 0.29,-0.27 1.26,-0.5 0.91,-0.94 0.93,-0.38 h 0.66 l 0.71,0.17 0.71,-0.53 1.55,-0.91 1.25,-0.1 0.94,0.59 1.67,-0.22 h 1 l 0.67,0.58 1.24,0.18 1.39,-0.23 1.39,-0.64 0.85,-0.25 0.94,0.59 0.81,0.72 1,-0.38 1,-0.11 1.35,0.74 1.88,1.45 2,1.72 1.08,0.73 1.24,0.18 0.42,-0.12 0.81,0.44 0.84,-0.38 2.08,-0.21 0.84,-0.38 1.09,0.31 1.06,1.28 0.54,0.57 0.77,1.55 0.11,0.83 0.77,0.73 1.4,0.45 1.08,0.59 0.4,0.57 1.62,0.88 1.24,0.18 2,1 3,1.07 1.08,0.73 1.51,0.33 2,1 0.53,0.7 1.09,0.46 c 0,-0.11 0.56,0.76 1.2,1 0.82,0.3 -1.49,-0.75 -1.49,-0.75 l -1.89,-1 -1.36,-0.74 -1.78,-0.34 -1.77,-0.75 -1.65,-0.33 -1.36,-0.46 -1.37,-0.33 -1.64,-0.37 -1.65,-0.33 -1.51,-0.15 -1.62,-1.17 -1.8,0.22 -1.52,0.22 -1.54,0.36 -1.21,-0.87 -0.57,0.53 -1.1,-0.17 -0.66,-0.85 -1.07,-1 -1.1,0.1 -1,0.66 -1.08,-0.87 -1.27,0.78 -0.59,1.09 -0.46,1.36 -1,0.24 -0.23,-1.52 -1.65,-0.2 -1.14,1.21 -0.72,0.8 0.79,1 -0.72,0.94 -1.76,-1 h -2.35 l -0.7,0.39 h -1 l -0.43,0.53 -2.18,-0.9 -1.06,-1.14 -1.78,-0.48 -1.93,0.07 -1.06,-1.28 -0.33,1.37 -0.7,0.25 -0.51,-1.12 c 0,0 -1.21,-0.66 -1.21,-0.39 a 6.32,6.32 0 0 1 -0.74,1.36 l -1,0.38 -1.09,-0.32 -0.25,-0.83 -0.51,-1.13 -0.54,-0.43 -1.08,-0.59 -1.26,0.51 -0.73,0.94 -1.12,0.37 h -1 l -1.23,-0.32 -1.95,0.35 -1.37,-0.33 -1.53,0.37 -0.86,0.93 -1,0.52 -1,0.1 -0.16,0.55 -0.85,0.66 -1.25,0.23 -1.52,0.09 -1.5,-0.47 a 4.49,4.49 0 0 1 -0.53,-0.85 c 0,-0.13 -0.7,0.39 -0.7,0.39 l -1,-0.17 -1.7,1.42 -1,0.38 -1.41,1.05 -1,1.07 -1.82,0.9 c 0,0 -1.13,0.65 -1.14,0.79 -0.01,0.14 -0.57,0.67 -0.57,0.67 l -1.12,0.38 -1.83,0.38 -0.71,1.19 -1.52,0.22 -2.12,1.3 -2,1.73 -1.86,1.73 -2.08,0.2 c 0,0 -1,0.52 -1.13,0.93 -0.13,0.41 -2.81,1.28 -2.81,1.28 l -1.39,0.37 c 0,0 -1.36,-0.6 -1.37,-0.33 a 6.32,6.32 0 0 1 -0.74,1.36 l -1.81,0.62 -1.83,0.77 -1.84,1.32 -1.14,1.06 -1.14,1.06 -1,0.66 -2.38,0.88 -1.56,1.33 -2,0.9 -4.34,1.64 z"
       inkscape:connector-curvature="0" />
    <path
       id="path42"
       style="fill:#ffffff;stroke:#ffffff;stroke-width:0.16523534px;stroke-miterlimit:10"
       d="m 486.83,186.68 4.08,-2.34 3.55,-2.78 1.68,-0.63 2,-1.45 1.53,-0.22 1.83,-0.9 2.28,-2.13 1.56,-1.33 1.3,-1.61 0.3,-0.68 1.22,0.59 1.25,-0.09 1.15,-1.24 1.56,-1.43 1.55,-0.63 h 1.06 l 2.85,-1.55 1.57,0.05 1.91,-0.76 1.3,-1.75 1.67,-0.35 1.85,-1.46 2,-1.17 2.54,-1.57 4.12,-3.31 1.32,-2.16 4.26,-3.44 h 1.54 l 1.64,-0.35 2,-1.18 1.84,-1.45 2.29,-2.13 2.69,-2 2,-1.58 2.68,-1.7 4.65,-2.88 1.28,-0.92 1.13,-0.65 1.1,-0.1 1.04,0.6 1.09,0.59 0.52,0.71 1.1,0.32 0.54,0.29 0.39,0.57 1,0.31 0.8,0.71 0.53,0.71 0.11,0.83 0.8,0.86 0.66,0.71 v 0.64 l 0.4,0.34 a 1.79,1.79 0 0 0 0.26,0.56 c 0.13,0.15 0.67,0.58 0.67,0.58 l 0.54,0.43 0.39,0.57 0.24,1 0.68,0.3 h 0.69 l 0.67,0.71 0.51,1.12 1.46,1.57 0.24,1.12 0.8,0.71 1.26,-0.5 1,0.17 0.81,0.72 1,0.17 1.24,-0.1 1.26,-0.51 1.38,0.19 1.22,0.6 0.37,1.11 0.53,0.85 1.51,0.19 0.7,-0.39 1.65,0.2 1,0.17 0.94,0.86 0.81,0.44 0.84,-0.25 0.84,-0.38 0.4,0.43 v 0.55 l 0.54,0.43 0.81,0.31 0.66,1 0.67,0.57 1,0.31 0.78,1.27 1.18,1.7 1.21,1 h 1 l 1.2,-0.3 0.76,-0.32 0.79,0.37 0.54,0.92 0.25,1 0.79,0.86 0.25,0.84 v 0.62 c 0,0 -0.4,-0.36 0.67,0.5 1.07,0.86 1.22,0.74 1.22,0.74 l 0.53,0.57 0.52,1 1,0.17 0.95,0.59 0.65,1.12 0.25,0.7 0.8,0.86 1.48,0.88 2.46,0.91 1.77,0.62 1.21,0.87 1.79,0.34 a 12.42,12.42 0 0 0 1.34,1.15 c 0.13,0 0.82,0.16 0.82,0.16 0,0 0.52,0.85 0.93,0.87 a 8.87,8.87 0 0 1 1.64,0.47 l 1.36,0.73 1.24,0.05 1.25,-0.1 0.53,0.44 1.52,-0.09 1,0.31 0.26,0.45 1.52,-0.11 0.52,0.85 0.82,0.3 v 1 l 1.07,1 1.64,0.33 2.18,0.91 1.92,0.34 1.3,0.34 -2.55,-0.25 h -1.24 l -1.08,-0.45 -1.38,-0.19 -2.85,-1.48 -0.24,-0.83 -0.67,-0.58 -1.1,-0.18 -1.09,-0.31 -1,0.1 a 1.79,1.79 0 0 1 -0.69,-0.16 c -0.27,-0.15 -0.95,-0.45 -1.09,-0.31 -0.14,0.14 -1.24,0 -1.24,0 l -1.12,-0.11 -1.91,-0.76 -0.93,-0.51 h -1.24 l -1.61,-0.76 -1.08,-0.59 -1.8,-0.46 -1.64,-0.61 -1.37,-0.19 -1.09,-0.45 a 12.25,12.25 0 0 0 -1.63,-0.61 c 0.13,0.14 -5.39,-3.91 -5.39,-3.91 h -1.1 l -1,0.65 c 0,0 2.15,1.53 1.87,1.86 -0.58,0.67 -0.71,0.39 -0.71,0.39 l -2.17,-0.9 -1.69,0.91 -0.73,-2.79 -1.88,-1.72 a 17.3,17.3 0 0 1 -2.93,0.86 c -0.55,0 -4.65,-1.13 -4.65,-1.13 l -2.92,0.59 -0.38,-1 0.6,-1.22 -4.16,0.54 -1.61,-1.43 c 0,0 -0.88,1.94 -1.18,2 a 29.22,29.22 0 0 1 -3.44,-0.12 l -1.07,-1 -1.27,0.79 0.2,-1.79 -1.87,-1.52 -2.46,-0.92 -2.37,0.75 -1.49,-1.16 c 0,0 0.51,-2.6 -0.6,-2.64 -1.11,-0.04 -2.56,-1.75 -2.56,-1.75 l -1.24,2.14 c 0,0 -0.36,4.16 -1.34,4.54 -0.98,0.38 -1.76,-0.89 -1.76,-0.89 l -0.5,2.46 -2.14,-2 -0.94,-0.87 -1.62,-0.88 -3.09,1.41 -3.05,0.45 -2.91,0.31 -2.6,3.22 0.63,-2.19 -2.07,-0.41 -1.34,-0.67 -1.8,0.21 -1.54,0.5 -2.1,0.76 -1.71,1.45 -1.23,-0.18 -0.66,-1 -1.65,-0.19 -1.73,2.28 -1.27,0.65 -0.92,-1.27 -1.24,-0.19 -0.51,-1 -1.66,-0.06 -2.68,-2.16 -1.69,0.91 -3.48,0.7 -4.19,1.51 -2.65,0.74 a 31.71,31.71 0 0 0 -3.09,1.55 9.64,9.64 0 0 1 -1.41,0.78 l -2.78,0.45 -3.39,2.23 -2.69,2.11 -3.19,0.31 -3.77,1.25 -3,2 z"
       inkscape:connector-curvature="0" />
    <polygon
       id="polygon44"
       style="fill:#ffffff;stroke:#ffffff;stroke-width:0.16523534px;stroke-miterlimit:10"
       points="483.21,187.38 482.06,188.86 479.42,189.46 474.66,191.09 472.72,191.43 471.04,192.2 469.36,192.69 467.54,193.46 465.3,194.49 463.48,195.11 460.83,195.85 466.68,194.4 468.23,193.62 471.02,192.75 474.08,191.89 476.45,191.42 479.1,190.69 481.32,190.21 482.17,189.94 482.87,189.83 484.01,188.38 485.4,188.15 487.74,188.23 492.94,185.51 494.64,184.19 497.88,182.37 501.81,180.71 494.85,182.26 486.83,186.68 484.75,186.74 " />
  </g>
</svg>
